<?xml version="1.0" standalone="no"?>
<!DOCTYPE svg PUBLIC "-//W3C//DTD SVG 20010904//EN"
 "http://www.w3.org/TR/2001/REC-SVG-20010904/DTD/svg10.dtd">
<svg version="1.0" xmlns="http://www.w3.org/2000/svg"
 width="500.000000pt" height="500.000000pt" viewBox="0 0 500.000000 500.000000"
 preserveAspectRatio="xMidYMid meet">
<metadata>
Created by potrace 1.14, written by Peter Selinger 2001-2017
</metadata>
<g transform="translate(0.000000,500.000000) scale(0.100000,-0.100000)"
fill="#000000" stroke="none">
<path d="M2310 4399 c-31 -12 -29 -10 -40 -47 -23 -84 99 -116 128 -34 10 31
1 57 -27 79 -19 15 -28 15 -61 2z"/>
<path d="M2603 4392 c-48 -7 -63 -74 -26 -114 21 -24 68 -23 93 2 49 49 4 124
-67 112z"/>
<path d="M2023 4369 c-31 -11 -46 -45 -38 -85 5 -27 12 -35 38 -42 35 -10 53
-4 81 27 17 19 18 24 5 58 -16 40 -48 56 -86 42z"/>
<path d="M2873 4330 c-22 -9 -40 -51 -34 -79 8 -41 86 -61 117 -30 24 25 21
79 -6 101 -24 20 -43 22 -77 8z"/>
<path d="M1716 4268 c-21 -30 -20 -50 5 -82 23 -29 63 -35 93 -13 22 16 26 78
7 101 -21 25 -86 21 -105 -6z"/>
<path d="M3131 4221 c-35 -35 -26 -96 16 -112 56 -21 114 31 94 84 -18 46 -78
60 -110 28z"/>
<path d="M1478 4166 c-12 -6 -27 -25 -35 -43 -12 -29 -11 -34 10 -57 29 -31
72 -40 92 -20 31 32 36 52 21 87 -16 38 -51 51 -88 33z"/>
<path d="M3383 4074 c-46 -46 -12 -117 52 -109 61 6 80 76 33 118 -28 24 -55
21 -85 -9z"/>
<path d="M1218 3993 c-24 -27 -26 -46 -12 -74 35 -70 138 -43 128 34 -2 16
-11 35 -21 43 -25 19 -77 17 -95 -3z"/>
<path d="M3618 3908 c-24 -18 -37 -59 -27 -85 13 -34 43 -45 101 -34 9 1 28
37 33 60 8 44 -70 88 -107 59z"/>
<path d="M1010 3795 c-27 -29 -26 -79 2 -99 45 -32 108 -9 110 40 1 23 -19 73
-29 76 -39 7 -65 2 -83 -17z"/>
<path d="M3807 3686 c-60 -56 19 -153 84 -103 38 29 34 97 -7 116 -36 16 -48
14 -77 -13z"/>
<path d="M2375 3595 c-106 -45 -158 -236 -165 -610 l0 -50 -93 -77 c-50 -43
-105 -89 -122 -103 -62 -54 -124 -106 -235 -200 -63 -54 -117 -100 -120 -104
-3 -3 -26 -23 -52 -44 -26 -21 -53 -43 -60 -50 -7 -7 -38 -34 -69 -60 -57 -47
-57 -48 -78 -145 -12 -53 -26 -109 -31 -124 -8 -26 -8 -27 18 -15 15 6 38 18
52 27 14 9 39 22 55 30 40 20 396 208 415 220 8 5 40 22 70 38 30 16 99 52
154 81 54 29 102 49 106 44 5 -4 11 -46 15 -93 4 -47 8 -87 10 -90 1 -3 6 -32
9 -65 4 -33 9 -67 11 -75 2 -8 6 -49 10 -90 9 -108 12 -140 19 -190 l7 -45
-130 -133 -129 -132 -4 -65 c-3 -36 -2 -67 1 -69 4 -3 33 2 66 10 33 8 74 16
90 19 17 3 44 10 60 15 44 13 148 34 165 33 8 0 53 -10 100 -21 116 -29 257
-62 262 -62 3 0 3 15 2 33 -1 17 -3 48 -3 68 -1 25 -10 45 -33 71 -18 19 -55
61 -83 93 -27 32 -67 77 -87 99 -40 45 -39 34 -23 191 6 60 12 135 20 230 21
282 24 297 55 260 7 -8 16 -15 20 -15 7 0 100 -53 140 -80 33 -22 133 -80 138
-80 3 0 20 -11 37 -25 18 -13 35 -21 39 -18 3 4 6 1 6 -5 0 -7 4 -12 9 -12 5
0 105 -58 222 -129 118 -71 217 -124 220 -119 3 5 0 41 -8 80 -7 39 -15 90
-18 112 -10 82 -16 95 -68 138 -28 24 -59 50 -67 58 -9 8 -36 31 -61 52 -24
20 -55 46 -69 58 -14 12 -47 40 -75 63 -27 23 -99 84 -160 136 -60 51 -121
102 -135 114 -36 30 -141 119 -164 139 -16 15 -20 34 -23 130 -6 207 -40 387
-90 479 -35 65 -97 96 -148 74z"/>
<path d="M832 3574 c-40 -28 -23 -109 23 -114 48 -5 65 1 80 29 35 68 -39 130
-103 85z"/>
<path d="M3965 3444 c-32 -35 -32 -67 1 -93 34 -26 68 -27 94 -1 27 27 25 66
-5 95 -31 32 -60 32 -90 -1z"/>
<path d="M692 3322 c-31 -21 -31 -86 1 -104 33 -18 49 -19 76 -6 34 18 44 53
26 89 -9 16 -19 30 -23 31 -31 6 -61 3 -80 -10z"/>
<path d="M4099 3197 c-19 -15 -36 -47 -33 -64 1 -7 2 -17 3 -22 3 -21 35 -41
66 -41 62 0 86 70 40 115 -26 27 -51 31 -76 12z"/>
<path d="M591 3051 c-62 -62 21 -159 88 -103 46 38 26 106 -35 118 -25 5 -37
1 -53 -15z"/>
<path d="M4173 2915 c-12 -8 -24 -29 -28 -46 -14 -63 65 -104 113 -59 31 29
29 73 -4 99 -32 25 -52 26 -81 6z"/>
<path d="M563 2782 c-27 -4 -53 -38 -53 -67 0 -52 78 -85 114 -49 52 52 12
128 -61 116z"/>
<path d="M4207 2629 c-43 -25 -39 -96 7 -116 49 -23 96 6 96 59 0 53 -57 84
-103 57z"/>
<path d="M526 2479 c-24 -19 -27 -27 -23 -57 11 -64 78 -84 117 -35 51 65 -29
143 -94 92z"/>
<path d="M4185 2330 c-22 -24 -24 -76 -4 -94 8 -8 26 -16 42 -20 60 -14 105
83 55 118 -31 22 -71 20 -93 -4z"/>
<path d="M551 2184 c-28 -35 -26 -59 4 -90 42 -41 115 -12 115 47 0 63 -81 92
-119 43z"/>
<path d="M4130 2050 c-52 -52 6 -140 75 -114 46 18 48 115 3 128 -39 10 -57 7
-78 -14z"/>
<path d="M647 1922 c-46 -28 -43 -101 6 -123 54 -24 116 47 88 99 -17 31 -62
43 -94 24z"/>
<path d="M4050 1793 c-40 -16 -54 -71 -27 -106 19 -26 69 -32 95 -10 27 21 33
77 11 98 -17 17 -59 26 -79 18z"/>
<path d="M751 1644 c-26 -33 -26 -55 -3 -82 29 -35 67 -38 96 -8 39 38 34 81
-11 105 -34 18 -60 13 -82 -15z"/>
<path d="M3904 1537 c-27 -15 -34 -27 -34 -64 0 -69 106 -87 129 -22 17 49 -7
84 -65 95 -6 1 -19 -3 -30 -9z"/>
<path d="M915 1405 c-14 -13 -25 -33 -25 -45 0 -29 44 -70 74 -70 29 0 66 42
66 76 0 31 -33 64 -65 64 -14 0 -37 -11 -50 -25z"/>
<path d="M3717 1308 c-29 -22 -37 -60 -19 -90 30 -51 101 -44 120 12 22 62
-49 116 -101 78z"/>
<path d="M1130 1213 c-23 -9 -39 -35 -39 -63 0 -84 115 -90 135 -8 4 21 0 33
-20 52 -24 25 -46 30 -76 19z"/>
<path d="M3503 1106 c-45 -39 -26 -107 33 -119 17 -3 34 3 49 17 34 31 39 58
15 88 -27 36 -66 41 -97 14z"/>
<path d="M1352 1030 c-63 -26 -31 -139 35 -127 57 12 83 58 55 99 -27 40 -45
45 -90 28z"/>
<path d="M3290 962 c-31 -10 -57 -43 -54 -69 6 -59 76 -86 116 -45 47 47 0
133 -62 114z"/>
<path d="M1603 888 c-32 -15 -44 -58 -26 -91 7 -15 17 -27 21 -28 4 0 18 -2
31 -5 31 -6 68 19 73 48 6 33 -17 74 -44 82 -28 7 -28 7 -55 -6z"/>
<path d="M3003 832 c-22 -14 -34 -61 -22 -85 16 -30 28 -37 65 -37 33 0 58 21
67 58 11 45 -67 91 -110 64z"/>
<path d="M1872 787 c-22 -10 -39 -48 -33 -76 9 -44 73 -63 111 -33 26 21 31
76 8 98 -18 18 -59 23 -86 11z"/>
<path d="M2722 746 c-29 -32 -32 -50 -15 -84 13 -27 21 -32 53 -32 51 0 75 28
71 85 -2 43 -79 65 -109 31z"/>
<path d="M2147 728 c-26 -20 -32 -70 -10 -96 39 -49 123 -19 123 42 0 49 -73
83 -113 54z"/>
<path d="M2430 708 c-43 -47 3 -129 64 -114 30 7 55 51 50 85 -9 51 -77 68
-114 29z"/>
</g>
</svg>
