<?xml version="1.0" encoding="UTF-8"?>
<svg xmlns="http://www.w3.org/2000/svg" xmlns:xlink="http://www.w3.org/1999/xlink" width="193pt" height="193pt" viewBox="0 0 193 193" version="1.1">
<g id="surface1">
<path style=" stroke:none;fill-rule:evenodd;fill:rgb(100%,100%,100%);fill-opacity:1;" d="M 0 0.242188 L 192.757813 0.242188 L 192.757813 193 L 0 193 L 0 0.242188 "/>
<path style=" stroke:none;fill-rule:evenodd;fill:rgb(49.411011%,44.313049%,70.587158%);fill-opacity:1;" d="M 124.4375 98.019531 L 118.449219 98.019531 C 118.566406 99.726563 119.195313 101.101563 120.296875 102.140625 C 121.394531 103.203125 122.769531 103.710938 124.4375 103.710938 C 124.4375 103.710938 124.4375 103.710938 124.457031 103.710938 C 125.617188 103.710938 126.675781 103.417969 127.621094 102.808594 C 128.5625 102.199219 129.289063 101.355469 129.800781 100.257813 L 132.078125 100.257813 C 131.351563 102.003906 130.328125 103.320313 129.035156 104.242188 C 127.738281 105.183594 126.226563 105.636719 124.496094 105.636719 C 124.476563 105.636719 124.457031 105.636719 124.4375 105.636719 C 122.179688 105.617188 120.296875 104.8125 118.726563 103.203125 C 117.152344 101.589844 116.367188 99.648438 116.367188 97.371094 C 116.367188 95.011719 117.152344 93.03125 118.683594 91.480469 C 120.195313 89.964844 122.101563 89.179688 124.4375 89.160156 C 124.476563 89.140625 124.535156 89.140625 124.597656 89.140625 C 126.953125 89.140625 128.855469 89.964844 130.351563 91.578125 C 131.820313 93.207031 132.566406 95.308594 132.566406 97.878906 L 132.566406 98.019531 Z M 171.78125 103.710938 L 171.800781 103.710938 C 172.980469 103.710938 174.039063 103.417969 174.964844 102.808594 C 175.90625 102.199219 176.632813 101.355469 177.144531 100.257813 L 179.421875 100.257813 C 178.695313 102.003906 177.691406 103.320313 176.378906 104.242188 C 175.082031 105.183594 173.570313 105.636719 171.859375 105.636719 C 171.84375 105.636719 171.800781 105.636719 171.78125 105.636719 C 169.542969 105.617188 167.640625 104.8125 166.089844 103.203125 C 164.515625 101.589844 163.730469 99.648438 163.730469 97.371094 C 163.730469 95.011719 164.496094 93.03125 166.027344 91.480469 C 167.539063 89.964844 169.445313 89.179688 171.78125 89.160156 C 171.84375 89.140625 171.882813 89.140625 171.941406 89.140625 C 174.296875 89.140625 176.222656 89.964844 177.691406 91.578125 C 179.1875 93.207031 179.914063 95.308594 179.914063 97.878906 L 179.914063 98.019531 L 165.792969 98.019531 C 165.929688 99.726563 166.539063 101.101563 167.660156 102.140625 C 168.757813 103.203125 170.132813 103.710938 171.78125 103.710938 Z M 171.78125 96.328125 L 177.691406 96.328125 C 177.320313 94.582031 176.632813 93.265625 175.613281 92.382813 C 174.628906 91.519531 173.355469 91.066406 171.78125 91.046875 C 171.742188 91.046875 171.683594 91.046875 171.644531 91.046875 C 170.132813 91.046875 168.835938 91.519531 167.796875 92.480469 C 166.734375 93.421875 166.089844 94.71875 165.851563 96.328125 Z M 182.25 105.203125 L 182.25 84.507813 L 184.253906 84.507813 L 184.253906 105.203125 Z M 124.4375 91.046875 C 124.378906 91.046875 124.339844 91.046875 124.300781 91.046875 C 122.789063 91.046875 121.492188 91.519531 120.433594 92.480469 C 119.390625 93.421875 118.742188 94.71875 118.507813 96.328125 L 130.351563 96.328125 C 129.976563 94.582031 129.269531 93.265625 128.269531 92.382813 C 127.265625 91.519531 125.988281 91.066406 124.4375 91.046875 Z M 135.710938 89.574219 L 139.363281 95.503906 L 143.25 89.574219 L 145.546875 89.574219 L 140.480469 97.054688 L 145.527344 105.203125 L 143.25 105.203125 L 139.246094 98.664063 L 135.042969 105.203125 L 132.824219 105.203125 L 138.125 97.074219 L 133.472656 89.574219 Z M 159.449219 94.386719 C 158.824219 93.246094 158.074219 92.402344 157.191406 91.851563 C 156.308594 91.320313 155.25 91.046875 154.03125 91.046875 C 152.421875 91.046875 151.046875 91.65625 149.925781 92.871094 C 148.808594 94.109375 148.238281 95.601563 148.238281 97.390625 C 148.238281 99.195313 148.808594 100.6875 149.925781 101.90625 C 151.066406 103.125 152.460938 103.710938 154.109375 103.710938 C 155.328125 103.710938 156.386719 103.417969 157.328125 102.828125 C 158.253906 102.21875 158.960938 101.394531 159.449219 100.316406 L 161.671875 100.316406 C 161.0625 102.003906 160.097656 103.320313 158.804688 104.242188 C 157.507813 105.183594 155.976563 105.636719 154.207031 105.636719 C 151.949219 105.636719 150.023438 104.832031 148.472656 103.222656 C 146.921875 101.632813 146.136719 99.6875 146.136719 97.429688 C 146.136719 95.132813 146.921875 93.167969 148.492188 91.558594 C 150.085938 89.945313 152.007813 89.140625 154.265625 89.140625 C 155.957031 89.140625 157.449219 89.613281 158.742188 90.515625 C 160.039063 91.4375 161.023438 92.714844 161.671875 94.386719 L 159.449219 94.386719 "/>
<path style=" stroke:none;fill-rule:evenodd;fill:rgb(10.588074%,73.332214%,69.018555%);fill-opacity:1;" d="M 89.5625 104.597656 L 94.160156 89.417969 L 100.167969 89.417969 C 100.402344 89.417969 100.640625 89.417969 100.875 89.417969 C 104.289063 89.457031 106.804688 89.886719 108.21875 90.121094 C 109.632813 90.359375 110.023438 91.890625 110.046875 93.402344 C 110.046875 96.878906 106.550781 99.058594 103.917969 98.507813 L 107.90625 104.753906 L 100.5625 104.753906 L 97.554688 99.570313 L 96.179688 104.597656 Z M 100.875 93.992188 L 99.265625 93.933594 L 98.417969 96.9375 C 99.027344 97.035156 99.972656 97.171875 100.875 97.113281 C 102.484375 97.035156 103.957031 96.386719 103.054688 94.070313 L 100.875 93.992188 "/>
<path style=" stroke:none;fill-rule:evenodd;fill:rgb(10.588074%,73.332214%,69.018555%);fill-opacity:1;" d="M 80.175781 104.359375 L 84.65625 89.417969 L 90.957031 89.417969 L 86.441406 104.359375 L 80.175781 104.359375 "/>
<path style=" stroke:none;fill-rule:evenodd;fill:rgb(10.588074%,73.332214%,69.018555%);fill-opacity:1;" d="M 58.382813 104.359375 L 67.667969 89.339844 L 78.863281 89.339844 L 78.488281 104.359375 L 72.207031 104.359375 L 72.066406 102.082031 L 70.753906 102.101563 L 66.902344 102.160156 L 65.488281 104.359375 Z M 70.753906 95.699219 L 68.964844 98.410156 L 70.753906 98.449219 L 72.539063 98.488281 L 72.480469 93.050781 L 70.753906 95.699219 "/>
<path style=" stroke:none;fill-rule:evenodd;fill:rgb(49.411011%,44.313049%,70.587158%);fill-opacity:1;" d="M 18.773438 103.203125 C 27.199219 94.816406 36.683594 90.339844 44.871094 89.75 C 48.835938 89.457031 52.410156 89.925781 54.179688 92.855469 C 55.652344 95.328125 54.789063 98.078125 53.375 100.589844 C 50.015625 106.636719 36.722656 117.203125 23.664063 116.4375 C 41.75 117.832031 58.085938 103.832031 60.539063 95.542969 C 61.148438 93.679688 61.1875 91.675781 60.226563 89.691406 C 57.261719 83.644531 46.304688 85.234375 36.132813 89.359375 C 29.691406 91.988281 24.035156 96.820313 18.773438 103.203125 "/>
<path style=" stroke:none;fill-rule:evenodd;fill:rgb(10.588074%,73.332214%,69.018555%);fill-opacity:1;" d="M 48.523438 97.761719 C 37.507813 107.246094 23.015625 109.464844 17.378906 101.652344 C 14.984375 97.351563 17.359375 92.128906 21.835938 87.53125 C 30.792969 78.753906 43.417969 75.886719 52.234375 79.597656 C 49.523438 77.164063 44.164063 76.183594 37.898438 77.007813 C 29.867188 78.261719 20.601563 82.191406 15.082031 87.847656 C 11.078125 91.421875 8.425781 95.640625 8.503906 100.257813 C 8.464844 102.613281 9.722656 104.988281 12.726563 107.34375 C 23.488281 114.808594 46.382813 102.339844 48.523438 97.761719 "/>
<path style=" stroke:none;fill-rule:evenodd;fill:rgb(49.411011%,44.313049%,70.587158%);fill-opacity:1;" d="M 92.527344 112.53125 L 92.527344 112.117188 C 92.941406 112.117188 93.316406 111.960938 93.609375 111.683594 C 93.921875 111.390625 94.0625 111.035156 94.0625 110.644531 C 94.0625 110.269531 93.921875 109.9375 93.609375 109.660156 C 93.292969 109.386719 92.941406 109.230469 92.546875 109.230469 L 92.527344 109.230469 L 92.527344 108.816406 C 92.546875 108.816406 92.546875 108.816406 92.570313 108.816406 C 92.882813 108.816406 93.15625 108.878906 93.414063 108.976563 C 93.6875 109.09375 93.902344 109.25 94.0625 109.464844 L 94.0625 108.898438 L 94.570313 108.898438 L 94.570313 112.429688 L 94.0625 112.429688 L 94.0625 111.882813 C 93.902344 112.078125 93.6875 112.234375 93.414063 112.351563 C 93.136719 112.46875 92.84375 112.53125 92.527344 112.53125 Z M 92.527344 108.816406 L 92.527344 109.230469 C 92.097656 109.25 91.742188 109.386719 91.449219 109.660156 C 91.136719 109.9375 90.996094 110.289063 90.996094 110.703125 C 90.996094 111.09375 91.136719 111.429688 91.449219 111.703125 C 91.742188 111.960938 92.117188 112.097656 92.527344 112.117188 L 92.527344 112.53125 C 91.941406 112.53125 91.429688 112.351563 91.035156 112 C 90.644531 111.644531 90.449219 111.195313 90.449219 110.683594 C 90.449219 110.152344 90.664063 109.703125 91.054688 109.347656 C 91.449219 108.996094 91.941406 108.816406 92.527344 108.816406 Z M 77.878906 112.53125 L 77.878906 112.097656 C 78.175781 112.097656 78.449219 112.039063 78.683594 111.902344 C 78.941406 111.761719 79.117188 111.566406 79.253906 111.3125 L 79.84375 111.3125 C 79.648438 111.703125 79.390625 112.019531 79.058594 112.214844 C 78.722656 112.429688 78.332031 112.53125 77.898438 112.53125 C 77.878906 112.53125 77.878906 112.53125 77.878906 112.53125 Z M 77.878906 110.800781 L 77.878906 110.429688 L 79.390625 110.429688 C 79.292969 110.035156 79.117188 109.722656 78.863281 109.523438 C 78.605469 109.328125 78.273438 109.230469 77.878906 109.230469 L 77.878906 108.796875 C 77.878906 108.796875 77.898438 108.796875 77.917969 108.796875 C 78.527344 108.796875 79.019531 108.976563 79.390625 109.347656 C 79.785156 109.722656 79.960938 110.191406 79.960938 110.78125 L 79.960938 110.800781 Z M 80.570313 108.898438 L 81.0625 108.898438 L 81.0625 109.289063 C 81.21875 109.132813 81.414063 109.015625 81.609375 108.9375 C 81.828125 108.855469 82.0625 108.816406 82.335938 108.816406 C 82.632813 108.816406 82.886719 108.878906 83.121094 108.976563 C 83.359375 109.074219 83.535156 109.210938 83.671875 109.386719 C 83.769531 109.503906 83.832031 109.660156 83.871094 109.839844 C 83.910156 109.996094 83.929688 110.25 83.929688 110.585938 L 83.929688 112.429688 L 83.417969 112.429688 L 83.417969 110.449219 C 83.417969 110.035156 83.339844 109.722656 83.144531 109.542969 C 82.964844 109.347656 82.671875 109.25 82.277344 109.25 C 82.042969 109.25 81.828125 109.308594 81.652344 109.386719 C 81.472656 109.464844 81.335938 109.582031 81.238281 109.742188 C 81.179688 109.839844 81.121094 109.9375 81.101563 110.074219 C 81.082031 110.191406 81.0625 110.410156 81.0625 110.722656 L 81.0625 112.429688 L 80.570313 112.429688 Z M 87.972656 109.976563 C 87.816406 109.722656 87.621094 109.523438 87.402344 109.40625 C 87.167969 109.289063 86.894531 109.230469 86.578125 109.230469 C 86.167969 109.230469 85.8125 109.367188 85.519531 109.644531 C 85.242188 109.917969 85.085938 110.25 85.085938 110.664063 C 85.085938 111.078125 85.242188 111.410156 85.519531 111.683594 C 85.8125 111.960938 86.1875 112.097656 86.597656 112.097656 C 86.914063 112.097656 87.1875 112.039063 87.421875 111.902344 C 87.679688 111.761719 87.855469 111.566406 87.972656 111.332031 L 88.542969 111.332031 C 88.386719 111.703125 88.148438 112.019531 87.816406 112.214844 C 87.480469 112.429688 87.089844 112.53125 86.636719 112.53125 C 86.050781 112.53125 85.558594 112.351563 85.144531 112 C 84.753906 111.625 84.554688 111.195313 84.554688 110.683594 C 84.554688 110.152344 84.753906 109.703125 85.164063 109.347656 C 85.558594 108.976563 86.070313 108.796875 86.636719 108.796875 C 87.089844 108.796875 87.464844 108.898438 87.796875 109.113281 C 88.128906 109.308594 88.386719 109.601563 88.542969 109.976563 Z M 89.820313 108.484375 L 89.308594 108.484375 L 89.308594 107.738281 L 89.820313 107.738281 Z M 89.308594 112.429688 L 89.308594 108.898438 L 89.820313 108.898438 L 89.820313 112.429688 Z M 77.878906 108.796875 L 77.878906 109.230469 C 77.859375 109.230469 77.839844 109.230469 77.839844 109.230469 C 77.449219 109.230469 77.113281 109.328125 76.839844 109.542969 C 76.566406 109.761719 76.40625 110.054688 76.347656 110.429688 L 77.878906 110.429688 L 77.878906 110.800781 L 76.328125 110.800781 C 76.367188 111.195313 76.527344 111.507813 76.800781 111.742188 C 77.09375 111.980469 77.449219 112.097656 77.878906 112.097656 L 77.878906 112.53125 C 77.289063 112.53125 76.800781 112.351563 76.40625 111.980469 C 75.996094 111.625 75.796875 111.175781 75.796875 110.664063 C 75.796875 110.113281 75.996094 109.679688 76.386719 109.328125 C 76.78125 108.976563 77.273438 108.796875 77.878906 108.796875 Z M 71.96875 112.53125 L 71.96875 112.097656 C 72.265625 112.097656 72.539063 112.039063 72.792969 111.902344 C 73.03125 111.761719 73.207031 111.566406 73.34375 111.3125 L 73.933594 111.3125 C 73.757813 111.703125 73.480469 112.019531 73.148438 112.214844 C 72.8125 112.429688 72.421875 112.53125 71.988281 112.53125 C 71.96875 112.53125 71.96875 112.53125 71.96875 112.53125 Z M 71.96875 110.800781 L 71.96875 110.429688 L 73.480469 110.429688 C 73.382813 110.035156 73.207031 109.722656 72.953125 109.523438 C 72.695313 109.328125 72.363281 109.230469 71.96875 109.230469 L 71.96875 108.796875 C 71.96875 108.796875 71.988281 108.796875 72.007813 108.796875 C 72.617188 108.796875 73.109375 108.976563 73.480469 109.347656 C 73.875 109.722656 74.070313 110.191406 74.070313 110.78125 L 74.070313 110.800781 Z M 74.660156 112.429688 L 74.660156 107.738281 L 75.191406 107.738281 L 75.191406 112.429688 Z M 59.285156 109.859375 L 61.542969 109.859375 L 61.542969 110.308594 L 59.285156 110.308594 L 59.285156 111.980469 L 61.542969 111.980469 L 61.542969 112.429688 L 58.753906 112.429688 L 58.753906 107.738281 L 61.542969 107.738281 L 61.542969 108.210938 L 59.285156 108.210938 Z M 71.96875 108.796875 L 71.96875 109.230469 C 71.949219 109.230469 71.949219 109.230469 71.929688 109.230469 C 71.539063 109.230469 71.203125 109.328125 70.929688 109.542969 C 70.671875 109.761719 70.496094 110.054688 70.4375 110.429688 L 71.96875 110.429688 L 71.96875 110.800781 L 70.417969 110.800781 C 70.457031 111.195313 70.613281 111.507813 70.890625 111.742188 C 71.183594 111.980469 71.539063 112.097656 71.96875 112.097656 L 71.96875 112.53125 C 71.378906 112.53125 70.890625 112.351563 70.496094 111.980469 C 70.085938 111.625 69.886719 111.175781 69.886719 110.664063 C 69.886719 110.113281 70.085938 109.679688 70.476563 109.328125 C 70.871094 108.976563 71.359375 108.796875 71.96875 108.796875 Z M 62.660156 108.898438 L 63.605469 110.230469 L 64.605469 108.898438 L 65.195313 108.898438 L 63.898438 110.585938 L 65.195313 112.429688 L 64.605469 112.429688 L 63.566406 110.957031 L 62.484375 112.429688 L 61.914063 112.429688 L 63.289063 110.605469 L 62.09375 108.898438 Z M 68.789063 109.976563 C 68.632813 109.722656 68.433594 109.523438 68.199219 109.40625 C 67.984375 109.289063 67.707031 109.230469 67.394531 109.230469 C 66.960938 109.230469 66.628906 109.367188 66.335938 109.644531 C 66.039063 109.917969 65.902344 110.25 65.902344 110.664063 C 65.902344 111.078125 66.039063 111.410156 66.335938 111.683594 C 66.628906 111.960938 66.980469 112.097656 67.414063 112.097656 C 67.726563 112.097656 68.003906 112.039063 68.238281 111.902344 C 68.472656 111.761719 68.652344 111.566406 68.789063 111.332031 L 69.359375 111.332031 C 69.199219 111.703125 68.945313 112.019531 68.613281 112.214844 C 68.277344 112.429688 67.886719 112.53125 67.433594 112.53125 C 66.84375 112.53125 66.351563 112.351563 65.960938 112 C 65.546875 111.625 65.351563 111.195313 65.351563 110.683594 C 65.351563 110.152344 65.546875 109.703125 65.960938 109.347656 C 66.371094 108.976563 66.863281 108.796875 67.453125 108.796875 C 67.886719 108.796875 68.277344 108.898438 68.613281 109.113281 C 68.945313 109.308594 69.179688 109.601563 69.359375 109.976563 L 68.789063 109.976563 "/>
<path style=" stroke:none;fill-rule:evenodd;fill:rgb(49.411011%,44.313049%,70.587158%);fill-opacity:1;" d="M 104.429688 110.9375 L 102.777344 110.9375 L 102.777344 110.644531 L 103.976563 110.644531 C 103.898438 110.328125 103.761719 110.09375 103.546875 109.9375 C 103.347656 109.78125 103.09375 109.703125 102.777344 109.703125 L 102.777344 109.367188 C 102.800781 109.367188 102.800781 109.367188 102.820313 109.367188 C 103.289063 109.367188 103.683594 109.503906 103.976563 109.800781 C 104.273438 110.09375 104.429688 110.46875 104.429688 110.917969 Z M 102.777344 111.960938 C 103.015625 111.960938 103.230469 111.902344 103.425781 111.800781 C 103.625 111.683594 103.761719 111.546875 103.859375 111.351563 L 104.332031 111.351563 C 104.175781 111.664063 103.976563 111.902344 103.703125 112.058594 C 103.445313 112.214844 103.152344 112.3125 102.800781 112.3125 L 102.777344 112.3125 Z M 104.882813 109.445313 L 105.273438 109.445313 L 105.273438 109.761719 C 105.410156 109.621094 105.546875 109.542969 105.703125 109.484375 C 105.882813 109.40625 106.058594 109.386719 106.273438 109.386719 C 106.511719 109.386719 106.707031 109.425781 106.902344 109.503906 C 107.078125 109.582031 107.21875 109.679688 107.316406 109.820313 C 107.394531 109.917969 107.453125 110.035156 107.472656 110.171875 C 107.511719 110.308594 107.53125 110.507813 107.53125 110.761719 L 107.53125 112.234375 L 107.117188 112.234375 L 107.117188 110.664063 C 107.117188 110.328125 107.058594 110.09375 106.921875 109.957031 C 106.765625 109.800781 106.550781 109.722656 106.234375 109.722656 C 106.039063 109.722656 105.882813 109.761719 105.746094 109.820313 C 105.605469 109.898438 105.488281 109.976563 105.410156 110.113281 C 105.371094 110.171875 105.332031 110.269531 105.3125 110.367188 C 105.292969 110.46875 105.273438 110.625 105.273438 110.878906 L 105.273438 112.234375 L 104.882813 112.234375 Z M 102.777344 110.9375 L 101.582031 110.9375 C 101.601563 111.253906 101.71875 111.488281 101.953125 111.683594 C 102.171875 111.863281 102.445313 111.960938 102.777344 111.960938 L 102.777344 112.3125 C 102.328125 112.292969 101.953125 112.15625 101.640625 111.882813 C 101.308594 111.585938 101.148438 111.234375 101.148438 110.839844 C 101.148438 110.410156 101.308594 110.054688 101.621094 109.78125 C 101.914063 109.503906 102.308594 109.367188 102.777344 109.367188 L 102.777344 109.703125 L 102.761719 109.703125 C 102.445313 109.703125 102.191406 109.78125 101.972656 109.957031 C 101.757813 110.132813 101.640625 110.347656 101.582031 110.644531 L 102.777344 110.644531 L 102.777344 110.9375 "/>
<path style=" stroke:none;fill-rule:evenodd;fill:rgb(49.411011%,44.313049%,70.587158%);fill-opacity:1;" d="M 124.144531 112.3125 L 124.144531 111.960938 C 124.457031 111.960938 124.753906 111.902344 125.007813 111.800781 C 125.265625 111.683594 125.460938 111.546875 125.597656 111.351563 L 126.207031 111.351563 C 126.011719 111.664063 125.734375 111.902344 125.382813 112.058594 C 125.027344 112.214844 124.636719 112.3125 124.164063 112.3125 Z M 124.144531 110.9375 L 124.144531 110.644531 L 125.753906 110.644531 C 125.636719 110.328125 125.460938 110.09375 125.183594 109.9375 C 124.910156 109.78125 124.574219 109.703125 124.144531 109.703125 L 124.144531 109.367188 C 124.164063 109.367188 124.183594 109.367188 124.183594 109.367188 C 124.832031 109.367188 125.34375 109.503906 125.734375 109.800781 C 126.148438 110.09375 126.34375 110.46875 126.34375 110.917969 L 126.34375 110.9375 Z M 115.976563 108.542969 L 116.308594 108.542969 L 118.46875 112.234375 L 117.878906 112.234375 L 117.214844 111.078125 L 115.976563 111.078125 L 115.976563 110.742188 L 117.015625 110.742188 L 115.976563 108.898438 Z M 124.144531 109.367188 L 124.144531 109.703125 C 124.125 109.703125 124.125 109.703125 124.105469 109.703125 C 123.691406 109.703125 123.359375 109.78125 123.0625 109.957031 C 122.789063 110.132813 122.613281 110.347656 122.554688 110.644531 L 124.144531 110.644531 L 124.144531 110.9375 L 122.535156 110.9375 C 122.554688 111.253906 122.730469 111.488281 123.023438 111.683594 C 123.320313 111.863281 123.691406 111.960938 124.144531 111.960938 L 124.144531 112.3125 C 123.535156 112.292969 123.023438 112.15625 122.613281 111.882813 C 122.179688 111.585938 121.964844 111.234375 121.964844 110.839844 C 121.964844 110.410156 122.179688 110.054688 122.59375 109.78125 C 123.003906 109.503906 123.515625 109.367188 124.144531 109.367188 Z M 119.351563 109.113281 L 118.804688 109.113281 L 118.804688 108.542969 L 119.351563 108.542969 Z M 118.804688 112.234375 L 118.804688 109.445313 L 119.351563 109.445313 L 119.351563 112.234375 Z M 120.765625 112.234375 L 120.21875 112.234375 L 120.21875 109.445313 L 120.726563 109.445313 L 120.726563 109.761719 C 120.863281 109.644531 121.003906 109.542969 121.160156 109.484375 C 121.335938 109.425781 121.511719 109.40625 121.730469 109.40625 L 121.730469 109.78125 C 121.375 109.800781 121.140625 109.878906 121.003906 109.996094 C 120.84375 110.09375 120.765625 110.289063 120.765625 110.546875 Z M 114.050781 112.234375 L 113.480469 112.234375 L 115.640625 108.542969 L 115.976563 108.542969 L 115.976563 108.898438 L 115.957031 108.898438 L 114.914063 110.742188 L 115.976563 110.742188 L 115.976563 111.078125 L 114.71875 111.078125 L 114.050781 112.234375 "/>
<path style=" stroke:none;fill-rule:evenodd;fill:rgb(49.411011%,44.313049%,70.587158%);fill-opacity:1;" d="M 181.757813 112.3125 L 181.757813 111.960938 C 181.777344 111.960938 181.777344 111.960938 181.777344 111.960938 C 182.210938 111.960938 182.5625 111.863281 182.859375 111.644531 C 183.132813 111.429688 183.289063 111.15625 183.289063 110.820313 C 183.289063 110.507813 183.132813 110.230469 182.839844 110.015625 C 182.5625 109.820313 182.210938 109.703125 181.757813 109.703125 L 181.757813 109.347656 C 182.328125 109.367188 182.816406 109.503906 183.210938 109.78125 C 183.621094 110.074219 183.820313 110.410156 183.820313 110.800781 C 183.820313 111.214844 183.621094 111.566406 183.230469 111.863281 C 182.816406 112.15625 182.347656 112.3125 181.777344 112.3125 C 181.777344 112.3125 181.777344 112.3125 181.757813 112.3125 Z M 181.757813 109.347656 L 181.757813 109.703125 C 181.757813 109.703125 181.738281 109.703125 181.71875 109.703125 C 181.324219 109.703125 180.972656 109.800781 180.679688 110.015625 C 180.382813 110.25 180.246094 110.507813 180.246094 110.839844 C 180.246094 111.15625 180.382813 111.429688 180.679688 111.644531 C 180.972656 111.863281 181.324219 111.960938 181.757813 111.960938 L 181.757813 112.3125 C 181.1875 112.3125 180.699219 112.15625 180.304688 111.882813 C 179.914063 111.585938 179.714844 111.234375 179.714844 110.839844 C 179.714844 110.429688 179.914063 110.074219 180.304688 109.78125 C 180.71875 109.503906 181.1875 109.347656 181.738281 109.347656 Z M 177.085938 112.292969 L 177.085938 111.960938 C 177.105469 111.960938 177.105469 111.960938 177.125 111.960938 C 177.515625 111.960938 177.851563 111.863281 178.164063 111.644531 C 178.460938 111.410156 178.617188 111.15625 178.617188 110.859375 C 178.617188 110.546875 178.460938 110.269531 178.164063 110.054688 C 177.871094 109.820313 177.496094 109.722656 177.105469 109.722656 C 177.105469 109.722656 177.105469 109.722656 177.085938 109.722656 L 177.085938 109.386719 C 177.398438 109.386719 177.691406 109.425781 177.949219 109.503906 C 178.203125 109.601563 178.421875 109.722656 178.597656 109.878906 L 178.597656 108.542969 L 179.105469 108.542969 L 179.105469 112.234375 L 178.597656 112.234375 L 178.597656 111.800781 C 178.421875 111.960938 178.203125 112.078125 177.929688 112.175781 C 177.671875 112.253906 177.378906 112.292969 177.085938 112.292969 Z M 177.085938 109.386719 L 177.085938 109.722656 C 176.671875 109.722656 176.320313 109.820313 176.023438 110.035156 C 175.710938 110.25 175.574219 110.507813 175.574219 110.820313 C 175.574219 111.136719 175.730469 111.410156 176.023438 111.644531 C 176.320313 111.863281 176.671875 111.960938 177.085938 111.960938 L 177.085938 112.292969 C 176.515625 112.292969 176.023438 112.15625 175.632813 111.882813 C 175.238281 111.585938 175.042969 111.253906 175.042969 110.839844 C 175.042969 110.429688 175.238281 110.074219 175.632813 109.800781 C 176.003906 109.523438 176.496094 109.386719 177.085938 109.386719 Z M 172.410156 112.292969 L 172.410156 111.960938 C 172.824219 111.960938 173.175781 111.863281 173.472656 111.625 C 173.785156 111.410156 173.921875 111.136719 173.921875 110.820313 C 173.921875 110.527344 173.785156 110.269531 173.472656 110.035156 C 173.175781 109.820313 172.824219 109.722656 172.429688 109.722656 L 172.410156 109.722656 L 172.410156 109.386719 C 172.429688 109.386719 172.429688 109.386719 172.449219 109.386719 C 172.765625 109.386719 173.039063 109.425781 173.296875 109.503906 C 173.550781 109.601563 173.765625 109.722656 173.921875 109.878906 L 173.921875 109.445313 L 174.433594 109.445313 L 174.433594 112.234375 L 173.921875 112.234375 L 173.921875 111.78125 C 173.765625 111.941406 173.550781 112.078125 173.273438 112.15625 C 173.019531 112.253906 172.726563 112.292969 172.410156 112.292969 Z M 172.410156 109.386719 L 172.410156 109.722656 C 172 109.722656 171.625 109.820313 171.332031 110.035156 C 171.035156 110.269531 170.878906 110.546875 170.878906 110.859375 C 170.878906 111.175781 171.035156 111.429688 171.332031 111.644531 C 171.625 111.863281 172 111.960938 172.410156 111.960938 L 172.410156 112.292969 C 171.820313 112.292969 171.332031 112.15625 170.9375 111.882813 C 170.546875 111.605469 170.347656 111.253906 170.347656 110.839844 C 170.347656 110.429688 170.566406 110.074219 170.957031 109.800781 C 171.351563 109.523438 171.820313 109.386719 172.410156 109.386719 Z M 163.75 112.3125 L 163.75 111.960938 C 164.183594 111.960938 164.554688 111.863281 164.832031 111.644531 C 165.125 111.429688 165.28125 111.15625 165.28125 110.820313 C 165.28125 110.507813 165.125 110.230469 164.832031 110.015625 C 164.554688 109.820313 164.183594 109.703125 163.75 109.703125 L 163.75 109.347656 C 164.320313 109.367188 164.792969 109.503906 165.203125 109.78125 C 165.597656 110.074219 165.8125 110.410156 165.8125 110.800781 C 165.8125 111.214844 165.617188 111.566406 165.203125 111.863281 C 164.8125 112.15625 164.320313 112.3125 163.75 112.3125 Z M 166.421875 109.445313 L 166.914063 109.445313 L 166.914063 109.761719 C 167.070313 109.621094 167.246094 109.542969 167.464844 109.484375 C 167.660156 109.40625 167.894531 109.386719 168.171875 109.386719 C 168.464844 109.386719 168.71875 109.425781 168.953125 109.503906 C 169.171875 109.582031 169.367188 109.679688 169.484375 109.820313 C 169.585938 109.917969 169.640625 110.035156 169.683594 110.171875 C 169.722656 110.308594 169.742188 110.507813 169.742188 110.761719 L 169.742188 112.234375 L 169.25 112.234375 L 169.25 110.664063 C 169.25 110.328125 169.152344 110.09375 168.976563 109.957031 C 168.796875 109.800781 168.503906 109.722656 168.109375 109.722656 C 167.875 109.722656 167.679688 109.761719 167.503906 109.820313 C 167.324219 109.898438 167.1875 109.976563 167.089844 110.113281 C 167.011719 110.171875 166.972656 110.269531 166.953125 110.367188 C 166.933594 110.46875 166.914063 110.625 166.914063 110.878906 L 166.914063 112.234375 L 166.421875 112.234375 Z M 163.75 109.347656 L 163.75 109.703125 C 163.730469 109.703125 163.730469 109.703125 163.710938 109.703125 C 163.300781 109.703125 162.964844 109.800781 162.671875 110.015625 C 162.378906 110.25 162.238281 110.507813 162.238281 110.839844 C 162.238281 111.15625 162.378906 111.429688 162.671875 111.644531 C 162.964844 111.863281 163.320313 111.960938 163.75 111.960938 L 163.75 112.3125 C 163.183594 112.3125 162.691406 112.15625 162.296875 111.882813 C 161.886719 111.585938 161.6875 111.234375 161.6875 110.839844 C 161.6875 110.429688 161.886719 110.074219 162.296875 109.78125 C 162.691406 109.503906 163.160156 109.347656 163.710938 109.347656 C 163.730469 109.347656 163.730469 109.347656 163.75 109.347656 Z M 151.890625 112.292969 L 151.890625 111.960938 C 151.890625 111.960938 151.890625 111.960938 151.910156 111.960938 C 152.304688 111.960938 152.65625 111.863281 152.949219 111.644531 C 153.265625 111.410156 153.402344 111.15625 153.402344 110.859375 C 153.402344 110.546875 153.265625 110.269531 152.949219 110.054688 C 152.65625 109.820313 152.304688 109.722656 151.890625 109.722656 L 151.890625 109.386719 C 152.203125 109.386719 152.480469 109.425781 152.734375 109.503906 C 152.988281 109.601563 153.207031 109.722656 153.382813 109.878906 L 153.382813 108.542969 L 153.914063 108.542969 L 153.914063 112.234375 L 153.382813 112.234375 L 153.382813 111.800781 C 153.207031 111.960938 152.988281 112.078125 152.714844 112.175781 C 152.460938 112.253906 152.183594 112.292969 151.890625 112.292969 Z M 155.230469 109.113281 L 154.71875 109.113281 L 154.71875 108.542969 L 155.230469 108.542969 Z M 154.71875 112.234375 L 154.71875 109.445313 L 155.230469 109.445313 L 155.230469 112.234375 Z M 159.253906 110.289063 C 159.097656 110.09375 158.902344 109.9375 158.683594 109.839844 C 158.449219 109.761719 158.195313 109.703125 157.878906 109.703125 C 157.46875 109.703125 157.113281 109.820313 156.820313 110.035156 C 156.546875 110.25 156.386719 110.507813 156.386719 110.839844 C 156.386719 111.15625 156.546875 111.429688 156.820313 111.644531 C 157.113281 111.863281 157.46875 111.960938 157.898438 111.960938 C 158.214844 111.960938 158.46875 111.902344 158.722656 111.800781 C 158.960938 111.703125 159.136719 111.546875 159.253906 111.351563 L 159.824219 111.351563 C 159.667969 111.664063 159.429688 111.902344 159.097656 112.058594 C 158.765625 112.214844 158.371094 112.3125 157.917969 112.3125 C 157.351563 112.3125 156.859375 112.15625 156.445313 111.882813 C 156.054688 111.585938 155.855469 111.253906 155.855469 110.839844 C 155.855469 110.429688 156.054688 110.074219 156.464844 109.800781 C 156.859375 109.503906 157.351563 109.367188 157.9375 109.367188 C 158.371094 109.367188 158.742188 109.445313 159.078125 109.601563 C 159.410156 109.78125 159.648438 109.996094 159.824219 110.289063 Z M 161.082031 109.113281 L 160.570313 109.113281 L 160.570313 108.542969 L 161.082031 108.542969 Z M 160.570313 112.234375 L 160.570313 109.445313 L 161.082031 109.445313 L 161.082031 112.234375 Z M 151.890625 109.386719 L 151.890625 109.722656 C 151.460938 109.722656 151.105469 109.820313 150.8125 110.035156 C 150.515625 110.25 150.359375 110.507813 150.359375 110.820313 C 150.359375 111.136719 150.515625 111.410156 150.8125 111.644531 C 151.105469 111.863281 151.460938 111.960938 151.890625 111.960938 L 151.890625 112.292969 L 151.871094 112.292969 C 151.300781 112.292969 150.8125 112.15625 150.417969 111.882813 C 150.023438 111.585938 149.828125 111.253906 149.828125 110.839844 C 149.828125 110.429688 150.023438 110.074219 150.417969 109.800781 C 150.8125 109.523438 151.300781 109.386719 151.871094 109.386719 Z M 143.230469 112.3125 L 143.230469 111.960938 C 143.664063 111.960938 144.015625 111.863281 144.3125 111.644531 C 144.605469 111.429688 144.742188 111.15625 144.742188 110.820313 C 144.742188 110.507813 144.605469 110.230469 144.3125 110.015625 C 144.015625 109.820313 143.664063 109.703125 143.230469 109.703125 L 143.230469 109.347656 C 143.78125 109.367188 144.273438 109.503906 144.664063 109.78125 C 145.078125 110.074219 145.292969 110.410156 145.292969 110.800781 C 145.292969 111.214844 145.078125 111.566406 144.683594 111.863281 C 144.289063 112.15625 143.800781 112.3125 143.230469 112.3125 Z M 145.882813 109.445313 L 146.394531 109.445313 L 146.394531 109.761719 C 146.550781 109.621094 146.726563 109.542969 146.921875 109.484375 C 147.140625 109.40625 147.375 109.386719 147.648438 109.386719 C 147.925781 109.386719 148.199219 109.425781 148.414063 109.503906 C 148.652344 109.582031 148.828125 109.679688 148.964844 109.820313 C 149.0625 109.917969 149.121094 110.035156 149.160156 110.171875 C 149.199219 110.308594 149.21875 110.507813 149.21875 110.761719 L 149.21875 112.234375 L 148.710938 112.234375 L 148.710938 110.664063 C 148.710938 110.328125 148.632813 110.09375 148.453125 109.957031 C 148.257813 109.800781 147.984375 109.722656 147.589844 109.722656 C 147.355469 109.722656 147.140625 109.761719 146.960938 109.820313 C 146.804688 109.898438 146.648438 109.976563 146.550781 110.113281 C 146.492188 110.171875 146.453125 110.269531 146.433594 110.367188 C 146.394531 110.46875 146.394531 110.625 146.394531 110.878906 L 146.394531 112.234375 L 145.882813 112.234375 Z M 134.199219 108.542969 L 134.53125 108.542969 L 136.574219 112.234375 L 136.003906 112.234375 L 135.378906 111.078125 L 134.199219 111.078125 L 134.199219 110.742188 L 135.199219 110.742188 L 134.199219 108.898438 Z M 143.230469 109.347656 L 143.230469 109.703125 C 143.210938 109.703125 143.191406 109.703125 143.191406 109.703125 C 142.777344 109.703125 142.425781 109.800781 142.152344 110.015625 C 141.855469 110.25 141.699219 110.507813 141.699219 110.839844 C 141.699219 111.15625 141.855469 111.429688 142.152344 111.644531 C 142.425781 111.863281 142.800781 111.960938 143.230469 111.960938 L 143.230469 112.3125 C 142.640625 112.3125 142.171875 112.15625 141.757813 111.882813 C 141.367188 111.585938 141.167969 111.234375 141.167969 110.839844 C 141.167969 110.429688 141.367188 110.074219 141.777344 109.78125 C 142.171875 109.503906 142.640625 109.347656 143.191406 109.347656 C 143.210938 109.347656 143.210938 109.347656 143.230469 109.347656 Z M 140.070313 110.289063 C 139.914063 110.09375 139.714844 109.9375 139.5 109.839844 C 139.265625 109.761719 139.007813 109.703125 138.695313 109.703125 C 138.28125 109.703125 137.929688 109.820313 137.652344 110.035156 C 137.359375 110.25 137.222656 110.507813 137.222656 110.839844 C 137.222656 111.15625 137.359375 111.429688 137.652344 111.644531 C 137.929688 111.863281 138.28125 111.960938 138.714844 111.960938 C 139.027344 111.960938 139.304688 111.902344 139.539063 111.800781 C 139.773438 111.703125 139.953125 111.546875 140.070313 111.351563 L 140.640625 111.351563 C 140.480469 111.664063 140.246094 111.902344 139.914063 112.058594 C 139.578125 112.214844 139.1875 112.3125 138.734375 112.3125 C 138.164063 112.3125 137.675781 112.15625 137.28125 111.882813 C 136.867188 111.585938 136.671875 111.253906 136.671875 110.839844 C 136.671875 110.429688 136.886719 110.074219 137.28125 109.800781 C 137.691406 109.503906 138.183594 109.367188 138.753906 109.367188 C 139.1875 109.367188 139.558594 109.445313 139.894531 109.601563 C 140.226563 109.78125 140.480469 109.996094 140.640625 110.289063 Z M 132.390625 112.234375 L 131.84375 112.234375 L 133.902344 108.542969 L 134.199219 108.542969 L 134.199219 108.898438 L 133.214844 110.742188 L 134.199219 110.742188 L 134.199219 111.078125 L 133.019531 111.078125 L 132.390625 112.234375 "/>
</g>
</svg>
