<?xml version="1.0" encoding="utf-8"?>
<!-- Generator: Adobe Illustrator 24.3.0, SVG Export Plug-In . SVG Version: 6.00 Build 0)  -->
<svg version="1.0" id="katman_1" xmlns="http://www.w3.org/2000/svg" xmlns:xlink="http://www.w3.org/1999/xlink" x="0px" y="0px"
	 viewBox="0 0 841.89 595.28" style="enable-background:new 0 0 841.89 595.28;" xml:space="preserve">
<style type="text/css">
	.st0{fill:#E73746;}
	.st1{fill:#010202;}
	.st2{fill:#E52528;}
	.st3{fill:#F3E600;}
</style>
<g transform="translate(50 50)">
	<g>
		<path class="st0" d="M438.41,294.29c0,0,43.21-5.06,57.64-5.59c25.08-0.98,37.7,8.16,37.7,24.4c0,16.17-12.54,22.51-37.7,22.51
			h-57.64V294.29z M387.8,369.61h110.83c18.28,0,37.47,0.3,49.41-3.55c11.86-3.85,17.75-8.01,25.16-16.24
			c8.39-9.52,12.16-23.65,12.16-34.37c0-12.54-2.95-24.7-13.67-35.05c-1.89-2.19-3.25-4.61-2.04-7.93c1.28-3.4,11.56-8.01,17.6-9.9
			c-86.43,3.25-148.75,10.43-199.6,19.19L387.8,369.61z"/>
		<path class="st0" d="M356.22,307.89c-0.6-1.89-2.19-5.89-0.53-11.11c1.89-5.82,13.37-11.18,15.71-12.16
			c-0.45,0.08-7.55,1.36-7.93,1.44c-13.75,2.95-17.38,3.4-27.95,5.82c-16.85,3.93-90.66,18.81-154.65,49.79c0,0-2.27,4.91-2.34,4.99
			c-8.76,18.96-22.44,22.89-22.44,22.89h64.74l10.88-26.97c1.89-4.31,10.05-11.41,19.94-12.31l61.04-6.72l17.53,46.01h50.69
			L356.22,307.89z"/>
		<path class="st0" d="M434.41,181.57l-66.48,0.08v1.21c8.84,3.32,19.79,12.09,19.79,28.03v46.61c18.51-1.51,29.92-2.49,50.77-3.85
			v-39.89h44.88c23.8,0,35.73,7.1,35.73,21.3c0,8.61-9.52,12.77-22.36,16.09c7.1-0.23,15.26-0.3,22.06-0.45
			c21.23-1.44,34.37-1.96,45.25-13.67c9.07-9.82,8.61-23.04,2.72-31.35c-4.38-6.19-8.84-10.27-15.56-14.05
			c-7.63-4.31-22.97-7.71-39.74-8.91C499.53,181.94,447.63,181.57,434.41,181.57z"/>
		<path class="st0" d="M275.16,224.78l17,45.18c14.81-2.72,30.52-4.68,46.24-6.8l-32.79-81.59h-57.87h-21.98v1.59
			c6.12,2.49,16.85,9.29,9.97,27.8l-32.64,77.89c13.9-3.7,39.36-9.44,54.02-12.24L275.16,224.78z"/>
	</g>
	<g>
		<path class="st0" d="M328.19,85.62c-7.48-4-21.68-12.24-31.35-27.8c-0.98,15.41-8.84,27.12-13.67,33.39
			c3.7,0.83,7.25,1.28,11.26,1.59C308.02,93.86,318.89,91.21,328.19,85.62z"/>
		<path class="st0" d="M448.76,92.8c4-0.3,7.55-0.76,11.26-1.59c-4.84-6.27-12.69-18.06-13.67-33.39
			c-9.67,15.56-23.87,23.8-31.35,27.8C424.29,91.21,435.16,93.86,448.76,92.8z"/>
		<path class="st0" d="M371.55,133.9c39.66,0,75.77,6.65,102.75,17.53c0.15,0.08,0.3,0.08,0.45,0.15
			c9.75-22.82,48.2-99.72,48.2-99.72c-5.82,4.99-31.73,45.93-76.98,49.41c-45.25,3.48-63.16-36.41-74.34-80.76c0,0.08,0,0.08,0,0.15
			c0-0.08,0-0.08,0-0.15c-11.18,44.35-29.09,84.31-74.34,80.76c-45.25-3.48-71.17-44.42-76.98-49.41c0,0,38.45,76.91,48.2,99.72
			C295.4,140.62,331.66,133.9,371.55,133.9z"/>
	</g>
	<g transform="translate(0 58)">
		<path class="st1" d="M191.22,407.1h-39.06v8.69h39.06V407.1z"/>
		<path class="st2" d="M269.34,407.1h-39.06v8.69h39.06V407.1z"/>
		<path class="st3" d="M230.28,407.1h-39.06v8.69h39.06V407.1z"/>
	</g>
	<g>
		<path class="st0" d="M219.25,405.95h-9.9v42.31h9.9V405.95z"/>
		<path class="st0" d="M249.85,426.19c4.91,0,8.01-1.66,8.01-6.35c0-4.76-3.25-6.27-8.01-6.27h-7.63v12.62H249.85z M232.24,405.95
			h17.9c9.9,0,17.98,4.08,17.98,13.9c0,6.42-3.85,10.43-9.44,12.39l11.03,16.02h-11.33l-9.82-14.66h-6.35v14.66h-9.9v-42.31H232.24z
			"/>
		<path class="st0" d="M337.48,405.95h31.88v7.63h-21.98v9.75h19.34v7.48h-19.34v9.82h22.97v7.63h-32.86V405.95z"/>
		<path class="st0" d="M380.62,405.95h9.97v34.68h21.83v7.63h-31.81V405.95z"/>
		<path class="st0" d="M414.39,427.1c0-12.54,10.05-21.68,24.63-21.68c7.86,0,13.52,1.89,17.53,5.82l-6.72,5.82
			c-2.42-2.19-5.21-3.85-10.8-3.85c-8.69,0-14.43,5.89-14.43,13.83s5.82,13.9,15.94,13.9c3.1,0,6.95-0.53,9.44-1.59v-6.87h-11.63
			v-7.63h20.7v18.89c-2.8,1.96-9.75,4.91-18.51,4.91C424.81,448.78,414.39,439.57,414.39,427.1z"/>
		<path class="st0" d="M480.34,405.95h-9.9v42.31h9.9V405.95z"/>
		<path class="st0" d="M492.35,432.92v-26.97h9.9v26.52c0,6.19,3.02,8.54,9.67,8.54c6.5,0,9.52-2.34,9.52-8.54v-26.52h9.9v26.97
			c0,10.73-8.46,15.87-19.42,15.87C500.81,448.78,492.35,443.65,492.35,432.92z"/>
		<path class="st0" d="M541.23,405.49h0.76l23.72,22.89l23.42-22.89h0.91v42.76h-9.59v-15.87c0-2.87,0.38-7.4,0.38-7.4
			s-2.95,3.7-5.21,5.97l-9.59,9.37h-0.91l-9.59-9.37c-2.27-2.27-5.21-5.97-5.21-5.97s0.38,4.53,0.38,7.4v15.87h-9.52v-42.76H541.23z
			"/>
		<path class="st0" d="M312.7,440.62h-9.14v-10.5h8.61c4.08,0,6.65,2.12,6.65,5.21C318.82,438.51,316.33,440.62,312.7,440.62z
			 M303.56,413.58h7.71c3.93,0,5.67,1.66,5.67,4.53c0,2.87-2.12,4.53-6.19,4.53h-7.25v-9.07H303.56z M319.35,425.89
			c4.53-0.98,7.4-4.53,7.4-8.61c0-6.42-4.99-11.33-14.73-11.33h-13.15h-5.21h-4.38v0.23c1.89,0.68,4.23,2.57,4.38,5.97v36.11h19.49
			c9.9,0,15.64-5.21,15.64-12.16C328.79,430.2,325.01,427.18,319.35,425.89z"/>
		<path class="st0" d="M169.91,435.26l5.89-13.9l5.97,13.9H169.91z M198.47,448.25l-21.15-42.68h-7.18v0.38
			c1.36,0.53,3.7,2.04,2.19,6.19l-15.41,31.05c-2.04,4.16-5.06,5.06-5.06,5.06h12.09l2.72-5.74h18.74l2.72,5.74H198.47z"/>
	</g>
</g>
</svg>
