<svg id="Layer_1" xmlns="http://www.w3.org/2000/svg" viewBox="0 0 160 60" width="160" height="60"><style>.st0{fill:#000}</style><path class="st0" d="M60.3 36.3c-4 .2-7.9.2-11.9 0-5.5-.4-11.2-1.2-17-2.4-3.4-.7-6.9-1.6-10.4-2.7-6.9-2.1-14-4.7-21.3-7.9C2.2 25 4.8 26.5 7.4 28c2.9 1.6 9.3 4.5 12.3 5.9l-4 8-2.2 4.5h12.1l4.2-8.8c6.9 2.1 14.1 3.5 21.3 4.1 4 .4 8 .5 12.1.5l-2.9-5.9zM49 12.8L43.7 1.6h-8.1l-4.8 9.7-6.5 13.1c3.4.6 9.3 1.5 9.3 1.5l1.4.2 3.2-6.8 1.1-2.3 1.4 3 4.2 8.9c-3.5-.2-7.1-.6-10.7-1.1-3.6-.5-7.1-1.2-10.7-1.9-5.9-1.2-11.7-2.7-17.3-4.2 5.4 2.2 10.9 4.2 16.5 5.8 3.4 1 6.9 1.9 10.4 2.6 4.4.9 8.9 1.6 13.3 2 4 .3 8 .4 12 .3L49 12.8zM123.7 10.9v7.9h18.1v9.6h-18.1v8h22.9v9.5H113V1.2h33.6v9.7zM105.5 37.5c-4.3 5.8-11.2 9.6-18.9 9.6-13 0-23.5-10.5-23.5-23.5S73.6 0 86.6 0c7.5 0 14.5 3.6 18.9 9.6l-8.1 5.2c-3-2.7-6.4-4.5-10.8-4.5-7.3 0-13.2 6-13.2 13.3s5.9 13.2 13.2 13.2c4.5 0 7.3-1.4 10.8-4.5l8.1 5.2zM28.1 54.9h-1l-2.2 5h1l.4-.9h2.6l.4.9h1l-2.2-5zm-1.5 3.2l.9-2.1.9 2.1h-1.8zM32.1 54.9h1v5h-1zM38.2 58.1c.9-.2 1.3-.9 1.3-1.6 0-.9-.6-1.6-1.8-1.7h-2.4v5h.9v-1.7h.9l1.5 1.7h1.1v-.1l-1.5-1.6zm-1.9-.7v-1.6h1.4c.6 0 .9.4.9.8s-.3.8-.9.8h-1.4zM48.8 59.2c-.5.5-1.2.7-1.9.7-1.9 0-2.6-1.3-2.6-2.6s.8-2.6 2.6-2.6c.7 0 1.3.3 1.8.8l-.6.6c-.3-.3-.8-.5-1.2-.5-1.2 0-1.7.9-1.7 1.7 0 .8.5 1.7 1.7 1.7.5 0 .9-.2 1.3-.5l.6.7zM54.2 54.9V57h-2.5v-2.1h-.9v5h.9v-2h2.5v2h.9v-5zM60.1 54.9h-1l-2.2 5h1l.4-.9h2.6l.4.9h1l-2.2-5zm-1.4 3.2l.9-2.1.9 2.1h-1.8zM68.7 59.8l-1.5-1.7c.9-.2 1.3-.9 1.3-1.6 0-.9-.6-1.6-1.8-1.7h-2.4v5h.9v-1.7h.9l1.5 1.7h1.1zm-3.5-2.4v-1.6h1.4c.6 0 .9.4.9.8s-.3.8-.9.8h-1.4zM70.4 54.9v.8H72v4.2h.9v-4.2h1.6v-.8zM76.5 54.9v5h3.7v-1h-2.8v-1.1h2.7v-.9h-2.7v-1.1h2.8v-.9zM85.3 58.1c.9-.2 1.3-.9 1.3-1.6 0-.9-.6-1.6-1.8-1.7h-2.4v5h.9v-1.7h.9l1.5 1.7h1.1v-.1l-1.5-1.6zm-2-.7v-1.6h1.4c.6 0 .9.4.9.8s-.3.8-.9.8h-1.4zM91.9 56.1c-.2-.3-.6-.6-1.2-.6-.7 0-1 .3-1 .7 0 .4.5.6 1.1.6 1 .1 2 .4 2 1.6 0 1.1-1 1.6-2.1 1.6-1 0-1.8-.3-2.2-1.2l.8-.4c.2.5.8.8 1.4.8.6 0 1.1-.2 1.1-.7 0-.5-.5-.7-1.2-.7-1-.1-2-.4-2-1.5 0-1 1-1.4 1.9-1.5.8 0 1.6.2 2 1l-.6.3zM97.8 54.9v5h3.7v-1h-2.8v-1.1h2.7v-.9h-2.7v-1.1h2.8v-.9zM108.1 54.9v2.9c0 1.5-.9 2.2-2.2 2.2-1.2 0-2.2-.7-2.2-2.2v-2.9h.9v2.9c0 .9.5 1.4 1.3 1.4s1.2-.5 1.2-1.4v-2.9h1zM113.3 58.1c.9-.2 1.3-.9 1.3-1.6 0-.9-.6-1.6-1.8-1.7h-2.4v5h.9v-1.7h.9l1.5 1.7h1.1v-.1l-1.5-1.6zm-2-.7v-1.6h1.4c.6 0 .9.4.9.8s-.3.8-.9.8h-1.4zM121.5 57.4zM119 54.8c-1.7 0-2.6 1.3-2.6 2.6s.8 2.6 2.6 2.6 2.5-1.3 2.6-2.6c-.1-1.3-.9-2.6-2.6-2.6zm0 4.3c-1.2 0-1.6-.9-1.6-1.7 0-.8.5-1.8 1.6-1.8 1.2 0 1.6.9 1.6 1.8 0 .8-.5 1.7-1.6 1.7zM126 54.9h-2.3v5h.9v-1.5h1.4c2.4 0 2.4-3.5 0-3.5zm0 2.6h-1.4v-1.8h1.4c1.2.1 1.2 1.8 0 1.8zM129.9 54.9v5h3.7v-1h-2.8v-1.1h2.7v-.9h-2.7v-1.1h2.8v-.9z"/></svg>