<?xml version="1.0" standalone="no"?>
<!DOCTYPE svg PUBLIC "-//W3C//DTD SVG 20010904//EN"
 "http://www.w3.org/TR/2001/REC-SVG-20010904/DTD/svg10.dtd">
<svg version="1.0" xmlns="http://www.w3.org/2000/svg"
 width="479.000000pt" height="129.000000pt" viewBox="0 0 479.000000 129.000000"
 preserveAspectRatio="xMidYMid meet">

<g transform="translate(0.000000,129.000000) scale(0.100000,-0.100000)"
fill="#000000" stroke="none">
<path d="M3972 1236 c-171 -42 -330 -171 -408 -333 -58 -120 -64 -167 -64
-550 l0 -343 358 0 c399 0 420 3 552 67 55 27 95 56 151 112 83 84 118 139
157 251 22 64 26 92 26 190 0 98 -4 126 -26 190 -39 112 -74 167 -157 251 -83
83 -175 136 -286 164 -71 18 -229 18 -303 1z m348 -713 c-101 -263 -187 -482
-192 -488 -4 -5 -8 126 -8 293 l0 302 -295 2 -296 3 483 186 c266 103 485 185
487 183 2 -2 -78 -218 -179 -481z"/>
<path d="M530 1133 c-7 -32 -31 -147 -54 -255 l-42 -198 66 0 66 0 18 93 c27
133 38 157 75 157 42 0 45 -21 21 -131 -11 -51 -20 -99 -20 -106 0 -9 18 -13
63 -13 l64 0 21 103 c39 187 27 243 -55 254 -31 4 -52 0 -81 -15 l-40 -20 19
86 c11 47 19 90 19 94 0 4 -29 8 -64 8 l-65 0 -11 -57z"/>
<path d="M1365 1178 c-2 -7 -24 -112 -50 -232 -25 -121 -48 -230 -51 -243 -6
-22 -4 -23 59 -23 54 0 67 3 71 18 2 9 25 116 51 237 25 121 48 228 51 238 5
15 -3 17 -61 17 -44 0 -67 -4 -70 -12z"/>
<path d="M1575 1178 c-2 -7 -25 -112 -50 -233 -25 -121 -49 -230 -52 -242 -5
-22 -3 -23 61 -23 60 0 66 2 71 23 3 12 26 119 51 237 24 118 47 223 50 233 5
15 -2 17 -61 17 -44 0 -67 -4 -70 -12z"/>
<path d="M253 1152 c-107 -38 -172 -103 -207 -205 -44 -129 4 -237 117 -268
46 -12 183 -7 197 7 4 5 11 30 15 56 l7 46 -61 -5 c-73 -7 -116 8 -136 48 -30
56 -5 142 54 192 41 34 69 41 141 34 l58 -6 20 49 c15 35 17 52 9 57 -27 16
-162 13 -214 -5z"/>
<path d="M990 1026 c-44 -12 -45 -13 -48 -55 -3 -43 -3 -43 25 -35 41 12 126
11 130 -2 2 -7 -23 -15 -62 -22 -83 -14 -128 -41 -154 -96 -28 -57 -26 -82 8
-117 35 -34 92 -39 144 -13 21 12 32 13 35 5 2 -6 27 -11 61 -11 l57 0 11 68
c7 37 17 96 24 132 10 54 10 70 -2 95 -28 59 -121 80 -229 51z m90 -208 c0
-43 -50 -74 -78 -46 -22 22 20 65 66 67 6 1 12 -9 12 -21z"/>
<path d="M1847 1026 c-141 -51 -207 -255 -105 -327 37 -27 143 -37 206 -20 42
12 42 12 42 57 0 26 -4 43 -9 39 -19 -11 -131 -7 -146 5 -30 25 -13 30 94 30
l109 0 6 31 c11 57 6 124 -10 148 -33 47 -113 63 -187 37z m81 -88 c27 -27 13
-38 -45 -38 l-56 0 23 25 c25 27 59 32 78 13z"/>
<path d="M2310 1029 c-13 -6 -33 -17 -42 -26 -17 -15 -18 -15 -18 5 0 20 -5
22 -55 22 -49 0 -55 -2 -59 -22 -3 -13 -19 -88 -36 -168 -16 -80 -30 -148 -30
-153 0 -4 29 -7 65 -7 36 0 65 2 65 5 0 25 45 205 56 223 17 26 62 30 71 5 5
-14 -15 -140 -35 -215 -4 -16 3 -18 61 -18 l65 0 15 68 c9 37 21 92 27 123 16
72 7 122 -27 149 -28 22 -81 26 -123 9z"/>
<path d="M2644 1022 c-132 -62 -178 -281 -68 -330 34 -16 83 -14 114 3 14 8
28 14 33 15 14 0 -23 -59 -42 -70 -25 -13 -92 -13 -126 0 -24 9 -27 7 -47 -35
-31 -64 -21 -70 107 -70 99 0 105 1 146 30 60 42 83 95 124 283 19 90 35 167
35 173 0 5 -24 9 -54 9 -41 0 -55 -4 -60 -17 -6 -15 -8 -15 -19 1 -20 27 -93
31 -143 8z m110 -140 c-2 -61 -25 -102 -57 -102 -31 0 -47 18 -47 53 0 55 41
109 79 105 24 -3 26 -6 25 -56z"/>
<path d="M3072 1014 c-142 -71 -178 -279 -57 -330 40 -16 134 -18 188 -3 36
10 37 11 37 55 0 26 -4 43 -9 39 -18 -10 -128 -7 -150 4 -43 23 -20 31 88 31
67 0 112 4 116 11 4 6 9 36 12 68 7 72 -14 116 -62 137 -51 21 -105 17 -163
-12z m106 -91 c3 -21 0 -23 -48 -23 -47 0 -50 1 -40 19 20 38 83 41 88 4z"/>
<path d="M1535 288 c-26 -128 -50 -241 -53 -250 -3 -14 2 -18 27 -18 17 0 31
2 31 5 0 3 23 111 50 241 28 129 50 240 50 245 0 5 -13 9 -28 9 l-28 0 -49
-232z"/>
<path d="M767 322 c-53 -97 -113 -205 -132 -240 l-35 -62 33 0 c30 0 35 5 70
75 l39 75 88 0 88 0 7 -75 7 -75 35 0 c32 0 34 2 29 27 -7 35 -56 418 -56 438
0 11 -11 15 -37 15 l-38 0 -98 -178z m142 -79 l1 -33 -70 0 c-38 0 -70 3 -70
6 0 3 26 54 58 114 l57 109 12 -82 c6 -45 12 -97 12 -114z"/>
<path d="M1178 489 c-22 -12 -24 -57 -4 -65 27 -10 57 15 54 44 -3 29 -23 38
-50 21z"/>
<path d="M1749 479 c-22 -22 -21 -37 4 -53 12 -8 21 -5 36 8 25 23 27 51 5 60
-22 8 -22 8 -45 -15z"/>
<path d="M1430 359 c-14 -6 -38 -22 -54 -37 l-28 -27 7 33 c6 30 5 32 -19 32
-14 0 -26 -2 -26 -5 0 -5 -56 -273 -65 -313 -5 -19 -1 -22 25 -22 16 0 30 1
30 3 0 22 45 200 57 225 16 34 57 62 93 62 11 0 20 3 20 8 0 4 3 17 6 30 7 24
-4 27 -46 11z"/>
<path d="M2018 360 c-15 -4 -42 -18 -59 -31 l-32 -23 7 28 c6 25 5 27 -20 24
-27 -3 -28 -6 -60 -158 -18 -85 -33 -161 -33 -167 -1 -8 11 -13 28 -13 28 0
29 2 45 88 24 126 42 168 80 192 55 33 100 22 119 -31 4 -13 -15 -128 -38
-226 -5 -20 -1 -23 25 -23 16 0 30 2 30 4 0 3 12 58 26 123 31 144 25 185 -31
209 -38 16 -48 16 -87 4z"/>
<path d="M2366 356 c-141 -52 -198 -273 -84 -332 24 -12 49 -15 103 -12 82 5
95 11 88 37 -4 17 -9 18 -41 9 -82 -23 -152 16 -152 84 l0 38 125 0 124 0 7
35 c9 49 -2 98 -29 123 -29 28 -92 36 -141 18z m77 -37 c30 -16 37 -28 37 -66
l0 -33 -95 0 -96 0 15 28 c17 33 43 58 76 71 33 13 38 13 63 0z"/>
<path d="M2706 360 c-40 -12 -84 -57 -91 -92 -9 -39 15 -73 70 -99 51 -24 63
-50 41 -84 -25 -37 -60 -43 -133 -20 -16 5 -23 2 -28 -15 -4 -12 -4 -25 0 -28
4 -4 40 -7 80 -7 88 0 122 20 144 83 20 54 6 83 -52 111 -61 30 -73 45 -59 76
13 29 48 40 101 31 31 -5 40 -2 45 11 4 9 3 20 -1 24 -13 13 -86 19 -117 9z"/>
<path d="M3057 356 c-48 -18 -74 -41 -98 -88 -22 -44 -25 -105 -5 -151 16 -38
76 -94 112 -103 35 -9 123 1 137 15 9 9 4 9 -21 0 -69 -24 -158 14 -193 84
-56 108 22 236 145 238 41 1 46 3 26 9 -37 12 -60 11 -103 -4z"/>
<path d="M1108 193 l-34 -168 24 -3 c13 -2 26 -1 29 2 5 5 72 302 73 324 0 7
-12 12 -28 12 l-29 0 -35 -167z"/>
<path d="M1717 338 c-8 -32 -67 -308 -67 -313 0 -3 13 -5 29 -5 l28 0 32 153
c18 83 35 160 37 170 4 13 -1 17 -24 17 -23 0 -31 -6 -35 -22z"/>
<path d="M3190 346 c0 -2 7 -7 16 -10 8 -3 12 -2 9 4 -6 10 -25 14 -25 6z"/>
<path d="M3035 258 c-3 -7 -11 -43 -19 -80 l-14 -68 38 0 c53 0 90 46 60 76
-8 8 -6 15 5 24 20 16 19 46 -1 54 -27 10 -64 7 -69 -6z m53 -7 c23 -14 10
-46 -21 -49 -29 -4 -30 0 -21 36 7 23 20 27 42 13z m-14 -67 c35 -14 11 -64
-31 -64 -20 0 -23 4 -17 28 11 45 16 48 48 36z"/>
<path d="M3165 258 c-2 -7 -10 -43 -18 -80 l-15 -68 46 2 c37 1 40 2 15 5 -29
4 -33 8 -33 34 0 27 3 29 35 29 19 0 35 5 35 10 0 6 -13 10 -30 10 -31 0 -35
6 -24 34 4 10 18 16 40 16 19 0 34 5 34 10 0 15 -80 12 -85 -2z"/>
</g>
</svg>
