<?xml version="1.0" standalone="no"?>
<!DOCTYPE svg PUBLIC "-//W3C//DTD SVG 20010904//EN"
 "http://www.w3.org/TR/2001/REC-SVG-20010904/DTD/svg10.dtd">
<svg version="1.0" xmlns="http://www.w3.org/2000/svg"
 width="300.000000pt" height="129.000000pt" viewBox="0 0 300.000000 129.000000"
 preserveAspectRatio="xMidYMid meet">

<g transform="translate(0.000000,129.000000) scale(0.100000,-0.100000)"
fill="#000000" stroke="none">
<path d="M0 645 l0 -645 1500 0 1500 0 0 645 0 645 -1500 0 -1500 0 0 -645z
m1635 441 c44 -19 45 -36 3 -36 -18 0 -40 -5 -48 -10 -10 -7 31 -10 125 -10
158 0 181 -7 207 -60 20 -42 14 -82 -17 -112 l-23 -22 23 -22 c33 -31 41 -70
24 -117 -26 -73 -48 -82 -230 -85 -148 -3 -159 -2 -159 15 0 10 7 97 15 193
20 234 20 218 -10 190 -13 -12 -84 -127 -157 -254 -73 -127 -146 -245 -161
-263 -36 -41 -107 -68 -180 -67 -31 0 -59 3 -61 5 -3 2 0 26 6 52 9 44 12 47
41 47 41 0 95 28 120 62 l20 27 -30 93 c-17 51 -41 121 -54 155 -12 35 -20 65
-17 69 4 3 23 6 43 7 47 1 91 -42 115 -112 l17 -52 69 122 c75 134 117 183
167 198 39 12 104 7 152 -13z m-1057 -47 c29 -10 32 -14 32 -52 0 -58 -10 -70
-44 -57 -15 5 -57 10 -93 10 -61 0 -67 -2 -99 -34 -27 -27 -34 -42 -34 -73 0
-78 55 -110 171 -99 l69 6 -7 -62 c-3 -35 -7 -65 -9 -67 -10 -12 -100 -19
-150 -12 -149 21 -234 104 -234 226 0 117 82 201 220 225 51 10 129 4 178 -11z
m202 -8 c0 -5 -3 -23 -6 -40 -6 -31 -7 -31 -70 -31 -61 0 -64 1 -64 24 0 50 8
56 76 56 35 0 64 -4 64 -9z m1338 -43 l-3 -43 -62 -3 -63 -3 0 39 c0 21 3 42
7 45 3 4 33 7 65 7 l59 0 -3 -42z m669 -20 c-4 -35 -12 -129 -18 -210 l-12
-148 -63 0 c-35 0 -64 5 -66 11 -2 6 -14 5 -33 -5 -63 -33 -141 -12 -172 47
-21 40 -22 131 -1 172 32 61 63 80 131 80 34 0 69 -2 77 -5 12 -4 16 6 18 45
4 75 4 75 78 75 l67 0 -6 -62z m-1799 12 l-4 -40 38 0 c41 0 42 -2 32 -62 -6
-36 -8 -38 -45 -38 -35 0 -39 -2 -44 -33 -4 -18 -5 -49 -3 -68 3 -32 6 -34 41
-37 l39 -3 -7 -42 c-4 -23 -9 -45 -12 -49 -9 -15 -128 -8 -163 10 -41 20 -47
48 -32 156 l9 66 -29 0 c-25 0 -28 3 -28 34 0 52 9 66 41 66 26 0 29 4 35 40
l7 40 64 0 65 0 -4 -40z m-224 -72 c-2 -13 -11 -75 -19 -138 -27 -201 -17
-180 -85 -180 -32 0 -61 4 -65 9 -3 6 4 82 16 170 l22 161 67 0 c64 0 67 -1
64 -22z m1342 -85 c-4 -54 -9 -124 -13 -155 l-6 -58 -64 0 c-56 0 -64 2 -59
18 2 9 7 67 11 127 9 173 6 165 77 165 l61 0 -7 -97z m179 87 c4 -7 12 -7 25
0 25 13 87 13 96 -1 3 -6 -2 -28 -11 -49 -15 -33 -23 -39 -53 -42 -31 -3 -38
-8 -49 -38 -6 -19 -15 -65 -18 -102 l-7 -68 -65 0 -66 0 6 48 c4 26 9 92 13
147 4 55 9 103 11 108 6 11 111 9 118 -3z m-1280 -340 c3 -5 0 -10 -8 -10 -25
0 -46 -34 -121 -196 -45 -97 -83 -165 -97 -176 -32 -22 -61 -29 -78 -19 -18
11 -5 51 17 51 10 0 28 7 40 16 28 19 29 61 2 146 -24 76 -25 98 -5 98 16 0
38 -38 49 -84 9 -36 15 -29 55 64 41 94 64 120 107 120 18 0 36 -4 39 -10z"/>
<path d="M1700 900 c0 -28 2 -30 39 -30 41 0 67 20 57 45 -4 10 -19 15 -51 15
-43 0 -45 -1 -45 -30z"/>
<path d="M1690 744 l0 -35 46 3 c87 6 84 68 -2 68 -44 0 -44 0 -44 -36z"/>
<path d="M2560 810 c-20 -20 -26 -63 -14 -94 9 -23 61 -21 74 3 17 33 12 89
-9 101 -26 13 -28 13 -51 -10z"/>
</g>
</svg>
