<?xml version="1.0" standalone="no"?>
<!DOCTYPE svg PUBLIC "-//W3C//DTD SVG 20010904//EN"
 "http://www.w3.org/TR/2001/REC-SVG-20010904/DTD/svg10.dtd">
<svg version="1.0" xmlns="http://www.w3.org/2000/svg"
 width="279.000000pt" height="150.000000pt" viewBox="0 0 279.000000 150.000000"
 preserveAspectRatio="xMidYMid meet">

<g transform="translate(0.000000,150.000000) scale(0.100000,-0.100000)"
fill="#000000" stroke="none">
<path d="M410 1341 c-70 -8 -102 -28 -129 -84 -29 -60 -28 -129 4 -182 31 -54
66 -77 132 -84 l53 -6 -70 -100 c-68 -97 -82 -124 -58 -109 7 4 8 3 4 -5 -4
-6 -12 -9 -17 -6 -11 7 -69 -82 -69 -107 0 -10 3 -18 8 -18 4 1 61 79 126 175
l119 175 68 0 69 0 49 68 49 67 -69 5 -69 5 22 32 c22 32 25 33 94 33 l71 0
37 52 36 52 -25 13 c-38 20 -115 33 -115 19 0 -6 -37 -64 -83 -128 -45 -64
-127 -183 -181 -263 -55 -80 -103 -148 -108 -151 -8 -5 310 472 343 515 11 13
19 26 19 30 0 8 -242 10 -310 2z m178 -176 l-23 -35 -80 2 c-68 3 -80 6 -83
21 -8 42 3 47 108 47 l100 0 -22 -35z"/>
<path d="M829 1206 c-30 -42 -79 -111 -110 -153 -30 -43 -146 -207 -257 -364
l-201 -287 -3 -121 c-2 -67 0 -120 4 -119 4 2 28 35 55 74 26 39 74 106 105
150 32 43 110 153 174 244 64 91 169 237 232 324 100 137 116 165 119 205 4
36 0 53 -19 80 -12 19 -28 36 -34 38 -6 2 -36 -30 -65 -71z"/>
<path d="M1067 962 c-26 -29 -22 -77 9 -101 32 -25 52 -26 82 -5 32 22 27 36
-7 16 -40 -22 -63 -4 -59 47 2 30 7 37 27 39 15 3 30 -3 38 -14 16 -22 27 -13
18 15 -9 28 -84 30 -108 3z"/>
<path d="M1775 970 c-3 -5 -1 -10 4 -10 6 0 11 -21 11 -50 0 -29 -5 -50 -11
-50 -5 0 -8 -4 -4 -9 3 -5 33 -10 66 -10 50 0 60 3 55 15 -3 9 -6 40 -6 71 0
50 -2 54 -22 51 -20 -3 -22 -8 -19 -60 2 -47 0 -58 -13 -58 -13 0 -16 12 -16
60 0 53 -2 60 -19 60 -11 0 -23 -4 -26 -10z"/>
<path d="M2135 969 c-10 -15 1 -23 20 -15 9 3 13 10 10 16 -8 13 -22 13 -30
-1z"/>
<path d="M1577 952 c-10 -11 -13 -22 -8 -28 5 -5 11 -25 13 -44 2 -29 7 -35
27 -35 13 0 26 6 29 14 3 10 0 12 -12 8 -13 -5 -16 0 -16 23 0 20 5 30 15 30
8 0 15 5 15 10 0 6 -7 10 -15 10 -8 0 -15 7 -15 15 0 20 -13 19 -33 -3z"/>
<path d="M2044 953 c-14 -24 -5 -103 13 -110 8 -3 24 -1 36 5 l22 11 -22 0
c-19 1 -23 7 -23 31 0 20 5 30 15 30 8 0 15 5 15 10 0 6 -7 10 -15 10 -8 0
-15 7 -15 15 0 20 -13 19 -26 -2z"/>
<path d="M1220 932 c-50 -41 11 -114 65 -78 27 18 34 57 13 74 -27 21 -55 22
-78 4z m49 -53 c-14 -28 -29 -23 -29 9 0 37 11 48 27 26 9 -12 9 -22 2 -35z"/>
<path d="M1363 942 c-48 -3 -48 -4 -31 -32 10 -16 10 -24 0 -41 -16 -26 -10
-33 21 -26 20 6 22 11 19 42 -3 28 -1 35 13 35 14 0 16 -7 13 -35 -2 -19 -2
-35 2 -35 3 0 15 -3 28 -6 21 -6 22 -4 18 20 -4 14 -8 37 -11 50 -6 28 -16 32
-72 28z"/>
<path d="M1469 924 c-11 -14 -10 -18 6 -30 10 -8 25 -14 32 -14 7 0 13 -4 13
-10 0 -14 -23 -13 -38 2 -15 15 -24 6 -16 -16 12 -32 84 -11 84 25 0 14 -9 21
-30 26 -16 3 -30 9 -30 14 0 12 27 11 35 -1 7 -12 25 -4 25 11 0 16 -67 10
-81 -7z"/>
<path d="M1670 921 c-15 -28 -12 -46 8 -64 22 -20 53 -22 70 -5 19 19 14 30
-8 18 -23 -13 -40 -6 -40 16 0 10 6 13 18 10 24 -8 46 9 39 28 -9 24 -73 21
-87 -3z m55 -1 c3 -5 -1 -10 -10 -10 -9 0 -13 5 -10 10 3 6 8 10 10 10 2 0 7
-4 10 -10z"/>
<path d="M1924 925 c-8 -21 3 -32 18 -17 15 15 28 16 28 2 0 -5 -6 -10 -13
-10 -24 0 -48 -25 -41 -43 5 -13 18 -17 55 -17 27 0 49 5 49 10 0 6 -4 10 -9
10 -6 0 -11 17 -13 38 -3 34 -6 37 -36 40 -22 2 -34 -2 -38 -13z m42 -62 c-10
-10 -19 5 -10 18 6 11 8 11 12 0 2 -7 1 -15 -2 -18z"/>
<path d="M2125 931 c-3 -5 -1 -12 3 -15 10 -6 9 -42 -1 -52 -15 -15 -6 -24 24
-24 24 0 30 3 25 16 -3 9 -6 31 -6 50 0 27 -4 34 -19 34 -11 0 -22 -4 -26 -9z"/>
<path d="M2212 928 c-7 -7 -12 -24 -12 -38 0 -34 17 -50 52 -50 18 0 33 8 44
25 15 23 15 27 0 50 -18 27 -63 34 -84 13z m58 -38 c0 -23 -4 -30 -20 -30 -14
0 -20 7 -20 23 0 27 7 37 27 37 8 0 13 -12 13 -30z"/>
<path d="M2334 932 c-5 -4 -9 -26 -10 -49 -1 -40 1 -43 27 -43 26 0 27 2 22
40 -5 34 -3 40 12 40 15 0 17 -6 12 -40 -5 -39 -4 -40 26 -40 24 0 28 3 19 12
-7 7 -12 27 -12 45 0 26 -5 33 -22 37 -34 6 -63 5 -74 -2z"/>
<path d="M1273 742 c-22 -3 -33 -22 -13 -22 15 0 12 -87 -2 -97 -9 -5 -3 -10
17 -14 36 -7 49 -1 36 15 -5 6 -11 36 -13 66 -3 51 -5 55 -25 52z"/>
<path d="M1625 740 c-10 -17 12 -37 25 -24 8 8 6 15 -4 23 -10 9 -16 9 -21 1z"/>
<path d="M1790 738 c-15 -6 -20 -12 -12 -15 7 -3 12 -24 12 -53 0 -30 -5 -50
-12 -53 -7 -2 16 -7 51 -11 41 -5 67 -4 74 3 8 8 7 11 -1 11 -7 0 -12 16 -12
40 0 33 -3 40 -19 40 -11 0 -23 -4 -26 -10 -3 -5 -1 -10 4 -10 6 0 11 -13 11
-30 0 -23 -4 -30 -20 -30 -17 0 -19 8 -22 64 -3 63 -3 63 -28 54z"/>
<path d="M948 728 c16 -16 16 -90 0 -106 -9 -9 11 -12 93 -12 l105 0 -4 40
c-5 45 -20 57 -69 54 -57 -3 -56 -3 -43 -18 15 -20 9 -61 -10 -61 -19 0 -27
80 -9 101 10 12 5 14 -32 14 -33 0 -40 -3 -31 -12z m152 -74 c0 -24 -4 -34
-12 -32 -18 6 -22 49 -6 59 18 12 18 13 18 -27z"/>
<path d="M1177 717 c-14 -14 -16 -22 -8 -30 6 -6 11 -25 11 -43 0 -33 12 -44
43 -36 21 5 23 22 2 22 -10 0 -15 10 -15 30 0 17 3 29 8 28 17 -6 16 9 -3 28
-20 20 -20 20 -38 1z"/>
<path d="M1505 710 c-4 -16 -17 -45 -30 -65 l-24 -35 28 0 c24 0 28 3 24 20
-4 16 0 20 22 20 22 0 26 -4 22 -20 -4 -16 0 -20 21 -21 15 0 59 -2 99 -5 l71
-4 -5 41 c-5 32 -3 40 8 37 8 -2 16 2 17 7 1 6 -16 11 -38 13 -23 2 -40 -1
-40 -7 0 -6 5 -11 10 -11 6 0 10 -13 10 -30 0 -23 -4 -30 -20 -30 -17 0 -20 7
-20 40 0 36 -3 40 -24 40 -22 0 -24 -3 -19 -40 8 -60 -14 -50 -44 20 -30 68
-57 80 -68 30z m35 -31 c0 -5 -7 -9 -15 -9 -9 0 -12 6 -9 15 6 15 24 11 24 -6z"/>
<path d="M1857 734 c-9 -10 2 -24 19 -24 8 0 14 7 14 15 0 15 -21 21 -33 9z"/>
<path d="M1925 650 l0 -50 57 0 57 0 -5 38 c-9 61 -10 62 -61 62 l-48 0 0 -50z
m70 10 c8 -24 -1 -40 -21 -40 -8 0 -14 10 -14 23 0 40 24 51 35 17z"/>
<path d="M2066 679 c-34 -50 30 -102 80 -64 18 14 17 15 -16 12 -25 -1 -35 2
-38 14 -2 13 4 16 28 14 37 -3 46 8 24 29 -22 22 -60 20 -78 -5z m49 1 c3 -5
-1 -10 -10 -10 -9 0 -13 5 -10 10 3 6 8 10 10 10 2 0 7 -4 10 -10z"/>
<path d="M2183 689 c-16 -16 2 -49 27 -49 10 0 22 -5 26 -11 5 -9 -3 -10 -29
-5 -31 6 -36 4 -31 -9 6 -15 40 -20 68 -9 28 11 18 43 -16 59 l-33 15 33 -5
c24 -3 32 -1 30 8 -6 16 -60 21 -75 6z"/>
<path d="M2320 630 c0 -28 3 -30 36 -30 29 0 35 3 30 16 -3 9 -6 22 -6 30 0 9
-11 14 -30 14 -27 0 -30 -3 -30 -30z m40 -2 c0 -16 -3 -19 -11 -11 -6 6 -8 16
-5 22 11 17 16 13 16 -11z"/>
<path d="M2440 655 c0 -10 24 -55 29 -55 3 0 14 14 23 30 l17 30 -34 0 c-19 0
-35 -2 -35 -5z"/>
<path d="M1345 630 c-4 -6 -3 -16 3 -22 6 -6 12 -6 17 2 4 6 3 16 -3 22 -6 6
-12 6 -17 -2z"/>
<path d="M2405 610 c-3 -5 -2 -10 4 -10 5 0 13 5 16 10 3 6 2 10 -4 10 -5 0
-13 -4 -16 -10z"/>
<path d="M2520 610 c0 -5 5 -10 10 -10 6 0 10 5 10 10 0 6 -4 10 -10 10 -5 0
-10 -4 -10 -10z"/>
</g>
</svg>
