<?xml version="1.0" standalone="no"?>
<!DOCTYPE svg PUBLIC "-//W3C//DTD SVG 20010904//EN"
 "http://www.w3.org/TR/2001/REC-SVG-20010904/DTD/svg10.dtd">
<svg version="1.0" xmlns="http://www.w3.org/2000/svg"
 width="300.000000pt" height="44.000000pt" viewBox="0 0 300.000000 44.000000"
 preserveAspectRatio="xMidYMid meet">

<g transform="translate(0.000000,44.000000) scale(0.100000,-0.100000)"
fill="#000000" stroke="none">
<path d="M1687 426 c-63 -17 -98 -43 -120 -89 -37 -75 16 -141 139 -174 72
-18 94 -30 94 -47 0 -48 -99 -53 -180 -10 -30 16 -58 30 -61 32 -7 3 -29 -53
-29 -75 0 -8 21 -24 48 -36 72 -32 219 -31 287 3 90 45 121 128 69 189 -19 23
-46 37 -108 56 -101 31 -125 47 -110 72 18 30 102 29 166 -1 29 -14 53 -24 54
-23 1 1 5 21 9 43 6 40 5 42 -27 53 -53 19 -177 23 -231 7z"/>
<path d="M40 395 c0 -32 -19 -207 -36 -334 l-6 -44 154 6 c90 3 173 12 201 21
115 35 171 104 171 211 1 74 -23 112 -91 146 -43 21 -65 24 -220 27 l-173 4 0
-37z m246 -61 c37 -18 64 -58 64 -95 0 -37 -38 -103 -69 -122 -16 -9 -46 -17
-66 -17 -30 0 -35 3 -31 18 2 9 7 53 11 97 11 147 17 154 91 119z"/>
<path d="M632 378 c-1 -29 -8 -118 -17 -197 -8 -79 -15 -147 -15 -152 0 -5 87
-9 195 -9 186 0 195 1 195 19 0 48 -6 51 -116 51 l-104 0 6 43 c10 70 4 67
113 67 l99 0 11 30 10 30 -105 0 c-115 0 -112 -2 -98 69 l7 31 102 0 103 0 11
31 c6 18 11 34 11 35 0 2 -91 4 -203 4 l-203 0 -2 -52z"/>
<path d="M1136 268 c-10 -90 -20 -182 -23 -205 l-6 -43 180 0 c99 0 182 2 185
5 3 3 2 20 -1 38 l-7 32 -87 3 -88 3 5 32 c3 18 10 77 16 132 6 55 13 115 16
133 l5 32 -88 0 -89 0 -18 -162z"/>
<path d="M2073 416 c3 -8 -3 -97 -13 -198 -11 -100 -20 -186 -20 -190 0 -5 88
-8 195 -8 186 0 195 1 195 19 0 48 -6 51 -116 51 l-103 0 5 33 c14 83 3 76
116 79 101 3 102 3 109 31 l7 27 -105 0 -106 0 7 37 c3 21 6 44 6 51 0 9 28
12 104 12 l104 0 11 31 c6 18 11 34 11 35 0 2 -93 4 -206 4 -173 0 -205 -2
-201 -14z"/>
<path d="M2547 413 c4 -10 30 -71 58 -136 48 -112 50 -121 45 -183 -4 -45 -2
-68 6 -71 6 -2 44 -3 85 -1 l74 3 7 66 c7 60 16 80 84 190 42 67 78 128 81
136 4 11 -5 14 -43 11 l-48 -3 -49 -82 c-27 -46 -53 -81 -57 -78 -4 3 -20 41
-36 85 l-27 80 -93 0 c-85 0 -93 -2 -87 -17z"/>
</g>
</svg>
