<?xml version="1.0" standalone="no"?>
<!DOCTYPE svg PUBLIC "-//W3C//DTD SVG 20010904//EN"
 "http://www.w3.org/TR/2001/REC-SVG-20010904/DTD/svg10.dtd">
<svg version="1.0" xmlns="http://www.w3.org/2000/svg"
 width="300.000000pt" height="103.000000pt" viewBox="0 0 300.000000 103.000000"
 preserveAspectRatio="xMidYMid meet">

<g transform="translate(0.000000,103.000000) scale(0.100000,-0.100000)"
fill="#000000" stroke="none">
<path d="M1900 594 c-113 -240 -206 -440 -208 -445 -2 -5 60 -9 146 -9 l151 0
25 55 c18 41 30 55 45 55 26 0 26 -13 1 -67 l-19 -43 68 0 c67 0 69 1 81 30
17 40 28 46 38 20 6 -17 28 19 112 195 58 120 107 221 108 226 2 5 -6 9 -17 9
-12 0 -21 2 -21 5 0 3 41 92 90 197 50 105 90 195 90 200 0 5 -30 8 -67 6
l-67 -3 -78 -165 c-42 -91 -96 -205 -119 -253 -29 -61 -45 -84 -50 -75 -18 28
-6 65 91 270 55 116 100 215 100 220 0 4 -66 8 -148 8 l-147 0 -205 -436z
m250 -170 c8 -21 5 -37 -15 -82 -20 -44 -28 -53 -35 -42 -15 24 -12 56 12 105
12 25 23 45 25 45 2 0 8 -12 13 -26z"/>
<path d="M2735 548 c-48 -106 -99 -217 -111 -245 l-24 -53 46 0 c41 0 46 3 55
30 11 30 12 30 84 30 l73 0 7 -30 c6 -28 10 -30 50 -30 31 0 43 4 40 12 -2 7
-32 117 -66 243 -33 127 -62 231 -63 233 -2 1 -42 -85 -91 -190z m91 -89 c20
-79 20 -79 -36 -79 -27 0 -50 2 -50 4 0 12 62 137 66 133 3 -3 12 -29 20 -58z"/>
<path d="M670 614 c0 -5 -7 -85 -15 -179 -8 -93 -15 -173 -15 -177 0 -12 175
-9 207 3 70 26 113 99 113 190 0 74 -23 119 -74 143 -38 18 -216 34 -216 20z
m182 -104 c21 -25 24 -96 7 -133 -14 -31 -45 -48 -90 -50 -38 -2 -36 -15 -24
137 l7 78 41 -5 c26 -4 49 -14 59 -27z"/>
<path d="M1037 613 c-3 -5 -10 -78 -16 -163 -7 -85 -14 -165 -17 -177 -4 -23
-3 -23 101 -23 97 0 105 1 105 19 0 11 3 26 6 35 5 14 -3 16 -55 16 l-61 0 0
35 0 34 58 3 57 3 3 38 3 37 -55 0 -56 0 0 35 0 35 65 0 65 0 0 40 0 40 -99 0
c-55 0 -102 -3 -104 -7z"/>
<path d="M1339 548 c-12 -40 -36 -122 -54 -183 l-32 -110 39 -3 c22 -2 42 -1
45 2 3 2 16 49 30 102 13 54 28 105 33 113 9 17 13 0 30 -131 l12 -88 32 0
c31 0 33 2 82 118 l49 117 3 -117 3 -118 39 0 40 0 0 186 0 185 -47 -3 -46 -3
-50 -118 c-27 -65 -52 -115 -56 -112 -3 4 -13 57 -21 118 l-15 112 -47 3 -47
3 -22 -73z"/>
<path d="M2500 613 c0 -5 -7 -82 -15 -173 -8 -91 -15 -171 -15 -177 0 -9 16
-13 45 -13 29 0 45 4 45 13 0 20 19 248 26 305 l5 52 -45 0 c-25 0 -46 -3 -46
-7z"/>
<path d="M35 574 c17 -14 44 -36 61 -50 l31 -24 244 2 244 3 3 48 3 47 -308 0
-308 -1 30 -25z"/>
<path d="M218 420 l60 -50 160 0 c176 0 172 -2 172 66 l0 34 -226 0 -226 0 60
-50z"/>
<path d="M326 331 c5 -5 31 -28 59 -50 48 -40 51 -41 126 -41 84 0 89 4 89 73
l0 27 -142 0 c-86 0 -138 -4 -132 -9z"/>
<path d="M2322 83 c-22 -38 -38 -70 -35 -73 2 -3 10 3 17 13 17 22 76 24 76 2
0 -8 6 -15 13 -15 10 0 12 12 6 53 -4 28 -8 60 -8 70 -2 35 -30 15 -69 -50z
m57 -10 c1 -7 -8 -13 -19 -13 -23 0 -25 12 -8 40 12 18 13 19 20 2 3 -9 7 -23
7 -29z"/>
<path d="M2465 140 c-3 -5 -1 -10 4 -10 6 0 11 5 11 10 0 6 -2 10 -4 10 -3 0
-8 -4 -11 -10z"/>
<path d="M2595 138 c-19 -58 -32 -129 -22 -125 14 4 48 137 36 137 -5 0 -12
-6 -14 -12z"/>
<path d="M2650 140 c0 -5 5 -10 10 -10 6 0 10 5 10 10 0 6 -4 10 -10 10 -5 0
-10 -4 -10 -10z"/>
<path d="M2457 100 c-16 -41 -24 -90 -17 -90 11 0 33 77 27 93 -3 8 -7 7 -10
-3z"/>
<path d="M2500 71 c-12 -45 -13 -61 -1 -61 5 0 12 16 16 36 4 24 13 38 26 41
27 7 24 21 -6 21 -20 0 -27 -7 -35 -37z"/>
<path d="M2631 66 c-13 -54 -13 -56 -2 -56 5 0 14 20 20 44 13 54 13 56 2 56
-5 0 -14 -20 -20 -44z"/>
<path d="M2694 95 c-17 -54 -22 -86 -11 -82 6 2 14 16 18 31 18 65 55 69 45 5
-3 -22 -2 -39 3 -39 10 0 32 80 25 92 -7 11 -76 5 -80 -7z"/>
<path d="M2818 93 c-23 -27 -29 -52 -18 -74 13 -23 29 -24 56 -4 18 13 17 14
-10 12 -16 -1 -31 4 -33 11 -3 8 7 12 31 12 39 0 50 11 41 40 -8 25 -46 26
-67 3z m48 -4 c9 -16 -12 -33 -31 -25 -14 5 -15 9 -5 21 15 18 26 19 36 4z"/>
<path d="M2921 91 c-11 -20 -3 -32 32 -44 30 -11 8 -30 -27 -23 -29 6 -30 6
-13 -11 16 -16 20 -16 45 -3 39 22 39 45 2 59 -40 13 -30 35 12 26 21 -5 28
-4 24 4 -12 19 -64 13 -75 -8z"/>
</g>
</svg>
