<?xml version="1.0" standalone="no"?>
<!DOCTYPE svg PUBLIC "-//W3C//DTD SVG 20010904//EN"
 "http://www.w3.org/TR/2001/REC-SVG-20010904/DTD/svg10.dtd">
<svg version="1.0" xmlns="http://www.w3.org/2000/svg"
 width="300.000000pt" height="43.000000pt" viewBox="0 0 300.000000 43.000000"
 preserveAspectRatio="xMidYMid meet">

<g transform="translate(0.000000,43.000000) scale(0.100000,-0.100000)"
fill="#000000" stroke="none">
<path d="M7 423 c-4 -3 -7 -24 -7 -45 l0 -38 220 0 c173 0 227 -3 249 -14 73
-38 88 -140 29 -203 -21 -23 -25 -23 -210 -23 l-188 0 0 75 0 75 -50 0 -51 0
3 -123 3 -122 205 -3 c264 -4 301 1 347 41 126 111 88 334 -65 377 -40 11
-474 14 -485 3z"/>
<path d="M700 215 l0 -215 283 2 282 3 3 47 3 48 -235 0 -236 0 0 35 0 35 235
0 235 0 0 45 0 45 -235 0 -235 0 0 40 0 40 235 0 235 0 0 45 0 45 -285 0 -285
0 0 -215z"/>
<path d="M1360 214 l0 -215 48 3 47 3 3 168 c2 155 4 167 21 167 11 0 77 -66
170 -170 l152 -171 92 3 92 3 3 213 2 212 -50 0 -50 0 0 -165 0 -165 -23 0
c-17 0 -62 44 -172 165 l-149 165 -93 0 -93 0 0 -216z"/>
<path d="M2080 214 l0 -215 43 3 42 3 3 213 2 212 -45 0 -45 0 0 -216z"/>
<path d="M2262 218 l3 -213 50 0 50 0 3 168 c2 153 4 167 20 167 14 0 33 -37
82 -157 35 -87 68 -164 73 -171 7 -9 35 -12 95 -10 l86 3 65 168 c58 149 68
167 88 167 l23 0 0 -171 0 -170 48 3 47 3 0 210 0 210 -107 3 -106 3 -42 -108
c-22 -59 -51 -134 -63 -165 -17 -45 -27 -58 -43 -58 -17 0 -31 27 -89 165
l-68 165 -109 0 -108 0 2 -212z"/>
</g>
</svg>
