<?xml version="1.0" standalone="no"?>
<!DOCTYPE svg PUBLIC "-//W3C//DTD SVG 20010904//EN"
 "http://www.w3.org/TR/2001/REC-SVG-20010904/DTD/svg10.dtd">
<svg version="1.0" xmlns="http://www.w3.org/2000/svg"
 width="2560.000000pt" height="474.000000pt" viewBox="0 0 2560.000000 474.000000"
 preserveAspectRatio="xMidYMid meet">

<g transform="translate(0.000000,474.000000) scale(0.100000,-0.100000)"
fill="#000000" stroke="none">
<path d="M380 2806 l0 -1416 533 0 c292 0 584 5 647 10 388 34 683 155 893
367 101 102 157 182 223 318 101 209 146 429 147 720 1 349 -67 602 -225 841
-171 259 -371 414 -648 502 -203 64 -220 66 -927 70 l-643 3 0 -1415z m1196
769 c163 -28 293 -108 377 -231 61 -89 102 -191 128 -318 18 -87 20 -124 16
-271 -7 -219 -34 -326 -120 -462 -68 -109 -162 -180 -303 -230 -76 -26 -87
-27 -326 -31 l-248 -4 0 781 0 781 194 0 c128 0 223 -5 282 -15z"/>
<path d="M5740 3870 l0 -350 -155 0 -155 0 0 -245 0 -245 155 0 155 0 0 -820
0 -820 320 0 320 0 0 820 0 820 150 0 150 0 0 245 0 245 -150 0 -150 0 0 350
0 350 -320 0 -320 0 0 -350z"/>
<path d="M9400 2805 l0 -1415 315 0 315 0 0 638 c0 689 2 718 55 807 59 100
143 146 277 153 184 9 292 -67 346 -243 13 -42 16 -153 19 -703 l4 -652 315 0
315 0 -4 728 c-4 779 -5 806 -58 978 -58 191 -178 341 -330 413 -117 56 -205
74 -374 74 -151 1 -229 -13 -326 -56 -70 -31 -166 -105 -204 -157 l-30 -42 -3
446 -2 446 -315 0 -315 0 0 -1415z"/>
<path d="M11840 2805 l0 -1415 553 0 c726 1 861 11 1037 81 152 61 327 202
399 322 80 136 112 251 118 432 5 158 -7 231 -55 337 -62 135 -157 229 -309
305 l-92 46 47 31 c117 78 219 222 258 366 24 88 23 270 0 365 -74 294 -311
477 -693 534 -45 7 -292 11 -667 11 l-596 0 0 -1415z m1165 762 c84 -38 119
-95 118 -197 -1 -68 -26 -132 -65 -165 -52 -44 -114 -55 -315 -55 l-183 0 0
221 0 221 203 -4 c166 -3 209 -7 242 -21z m86 -1043 c114 -32 168 -106 169
-230 0 -127 -58 -207 -181 -245 -52 -16 -93 -19 -290 -19 l-229 0 0 255 0 255
237 0 c187 0 249 -3 294 -16z"/>
<path d="M14290 3980 l0 -240 315 0 315 0 0 240 0 240 -315 0 -315 0 0 -240z"/>
<path d="M18290 3780 l0 -440 -71 59 c-88 74 -207 134 -324 162 -113 28 -330
31 -441 6 -438 -99 -739 -419 -819 -872 -21 -117 -21 -351 -1 -467 65 -361
267 -649 561 -795 273 -136 634 -147 885 -25 56 27 96 57 158 119 l82 82 0
-110 0 -109 300 0 300 0 0 1415 0 1415 -315 0 -315 0 0 -440z m-360 -802 c174
-37 338 -202 380 -385 17 -76 15 -220 -5 -289 -51 -179 -187 -312 -375 -368
-73 -22 -227 -22 -300 0 -131 38 -245 126 -309 237 -64 113 -89 295 -56 421
78 298 346 453 665 384z"/>
<path d="M19771 4163 c31 -32 804 -834 1719 -1783 914 -949 1709 -1772 1766
-1830 l104 -105 0 1888 0 1887 -1822 0 -1822 0 55 -57z"/>
<path d="M23800 3420 c0 -440 2 -800 3 -800 2 0 360 360 796 800 l793 800
-796 0 -796 0 0 -800z"/>
<path d="M7825 3579 c-235 -31 -450 -136 -625 -305 -149 -143 -253 -320 -308
-521 -24 -90 -26 -113 -26 -293 0 -181 2 -202 27 -295 58 -213 194 -434 350
-566 275 -232 618 -320 980 -253 338 64 646 303 798 621 32 68 79 198 79 220
0 10 -61 13 -320 13 l-319 0 -34 -52 c-101 -157 -236 -229 -427 -229 -238 0
-411 129 -481 361 -44 145 -26 331 44 465 106 202 318 289 572 233 114 -24
246 -129 298 -234 l21 -44 323 0 323 0 -6 28 c-83 357 -354 660 -704 787 -167
60 -401 87 -565 64z"/>
<path d="M16366 3574 c-153 -28 -272 -106 -354 -231 l-37 -58 -3 118 -3 117
-294 0 -295 0 0 -1065 0 -1065 315 0 315 0 0 588 c0 349 4 613 10 652 21 130
85 222 189 271 54 25 174 49 247 49 l54 0 0 320 0 320 -32 -1 c-18 0 -69 -7
-112 -15z"/>
<path d="M3184 3506 c-3 -8 -4 -346 -1 -753 4 -720 4 -740 26 -838 41 -181
122 -332 228 -424 65 -57 205 -125 300 -148 108 -25 360 -25 453 1 139 38 242
106 331 219 l38 48 3 -108 3 -108 298 -3 297 -2 -2 1062 -3 1063 -315 0 -315
0 -5 -660 c-5 -576 -7 -666 -22 -707 -56 -163 -154 -229 -343 -229 -169 0
-254 55 -308 197 -22 58 -22 68 -27 729 l-5 670 -313 3 c-262 2 -313 0 -318
-12z"/>
<path d="M14290 2455 l0 -1065 315 0 315 0 0 1065 0 1065 -315 0 -315 0 0
-1065z"/>
<path d="M20285 1948 c-308 -298 -561 -546 -563 -550 -2 -4 503 -8 1123 -8
620 0 1125 4 1123 8 -1 4 -221 219 -488 476 -267 258 -519 502 -560 542 l-75
73 -560 -541z"/>
</g>
</svg>
