<?xml version="1.0" standalone="no"?>
<!DOCTYPE svg PUBLIC "-//W3C//DTD SVG 20010904//EN"
 "http://www.w3.org/TR/2001/REC-SVG-20010904/DTD/svg10.dtd">
<svg version="1.0" xmlns="http://www.w3.org/2000/svg"
 width="200.000000pt" height="42.000000pt" viewBox="0 0 200.000000 42.000000"
 preserveAspectRatio="xMidYMid meet">

<g transform="translate(0.000000,42.000000) scale(0.100000,-0.100000)"
fill="#000000" stroke="none">
<path d="M482 413 c-11 -4 -62 -93 -62 -108 0 -3 108 -5 240 -5 l240 0 30 60
30 60 -232 -1 c-128 0 -239 -3 -246 -6z"/>
<path d="M1048 314 c-139 -160 -138 -144 -10 -144 85 0 112 3 122 15 7 8 19
15 26 15 8 0 14 -7 14 -15 0 -12 17 -15 90 -15 l90 0 0 43 c0 23 -3 79 -7 125
l-6 82 -113 0 -113 0 -93 -106z"/>
<path d="M1439 355 c-16 -35 -29 -67 -29 -70 0 -3 23 -5 50 -5 28 0 50 -2 50
-5 0 -3 -9 -23 -20 -45 -11 -22 -20 -44 -20 -50 0 -6 41 -10 110 -10 l110 0
27 55 27 55 56 0 56 0 32 65 c18 36 32 68 32 70 0 3 -102 5 -226 5 l-225 0
-30 -65z"/>
<path d="M355 180 c-42 -85 -48 -104 -39 -127 17 -50 34 -53 367 -53 294 0
310 1 334 20 21 16 41 20 100 20 66 0 75 -2 80 -20 5 -19 14 -20 209 -20 l204
0 35 70 35 70 -115 0 -115 0 -29 -57 -30 -58 -1 58 0 57 -247 0 -248 -1 -35
-44 c-38 -49 -49 -52 -26 -6 9 16 16 35 16 41 0 6 -51 10 -146 10 -112 0 -145
3 -142 13 3 8 43 13 139 15 l135 3 22 45 c12 24 22 49 22 54 0 6 -90 10 -238
10 l-238 0 -49 -100z"/>
<path d="M67 143 c-19 -18 3 -23 108 -23 96 0 115 3 115 15 0 12 -19 15 -108
15 -60 0 -112 -3 -115 -7z"/>
<path d="M1707 143 c-19 -19 5 -23 137 -23 119 0 145 3 150 15 5 13 -15 15
-138 15 -78 0 -146 -3 -149 -7z"/>
<path d="M37 83 c-19 -18 3 -23 113 -23 100 0 120 3 120 15 0 12 -19 15 -113
15 -63 0 -117 -3 -120 -7z"/>
<path d="M1677 83 c-19 -19 5 -23 137 -23 119 0 145 3 150 15 5 13 -15 15
-138 15 -78 0 -146 -3 -149 -7z"/>
<path d="M10 20 c-10 -20 -8 -20 146 -20 156 0 157 0 139 20 -16 18 -31 20
-146 20 -118 0 -129 -2 -139 -20z"/>
<path d="M1646 24 c-3 -9 -6 -18 -6 -20 0 -2 62 -4 138 -4 132 0 162 6 162 32
0 4 -65 8 -144 8 -122 0 -145 -2 -150 -16z"/>
</g>
</svg>
