<?xml version="1.0" standalone="no"?>
<!DOCTYPE svg PUBLIC "-//W3C//DTD SVG 20010904//EN"
 "http://www.w3.org/TR/2001/REC-SVG-20010904/DTD/svg10.dtd">
<svg version="1.0" xmlns="http://www.w3.org/2000/svg"
 width="900.000000pt" height="500.000000pt" viewBox="0 0 900.000000 500.000000"
 preserveAspectRatio="xMidYMid meet">

<g transform="translate(0.000000,500.000000) scale(0.100000,-0.100000)"
fill="#000000" stroke="none">
<path d="M2861 3680 c2 -141 10 -171 72 -253 169 -225 453 -515 662 -675 70
-54 -24 4 -125 76 -155 112 -290 223 -403 331 -71 69 -98 89 -92 71 17 -56 65
-173 79 -195 15 -23 195 -162 331 -256 99 -68 277 -175 398 -240 102 -54 107
-62 17 -24 -171 72 -349 168 -522 281 -71 46 -128 81 -128 79 0 -10 200 -243
233 -272 72 -63 456 -207 699 -262 73 -16 192 -39 263 -51 157 -27 216 -24
459 25 248 49 462 117 703 222 96 42 107 50 175 126 65 72 121 140 168 201 8
11 -25 -7 -75 -41 -172 -115 -357 -216 -528 -289 -98 -42 -108 -43 -37 -3 288
161 381 221 588 376 167 125 160 116 216 273 l26 72 -97 -92 c-138 -131 -402
-338 -528 -415 -40 -25 -25 -10 65 65 206 170 426 399 580 603 l71 96 5 113
c4 94 3 110 -8 95 -7 -11 -44 -67 -82 -125 -150 -234 -284 -398 -477 -587
-262 -256 -508 -426 -893 -617 -124 -62 -164 -78 -185 -73 -45 11 -340 161
-459 232 -426 257 -763 577 -1026 973 -46 69 -97 148 -114 175 l-32 50 1 -65z"/>
<path d="M3890 3195 l0 -285 185 0 185 0 0 30 0 29 -142 3 -143 3 -3 93 -3 92
116 0 115 0 0 35 0 34 -112 3 -113 3 -3 88 -3 87 141 0 140 0 0 35 0 35 -180
0 -180 0 0 -285z"/>
<path d="M4408 3188 c-3 -322 -4 -325 -70 -394 l-29 -31 27 -22 28 -22 39 38
c21 21 50 59 63 85 24 47 24 50 24 343 l0 295 -39 0 -40 0 -3 -292z"/>
<path d="M4650 3196 l0 -286 35 0 35 0 2 208 3 207 71 -205 71 -205 35 -3 35
-3 81 223 81 223 0 -222 1 -223 40 0 40 0 0 286 0 285 -52 -3 -51 -3 -81 -222
c-45 -122 -84 -224 -87 -228 -3 -3 -42 97 -85 222 l-79 228 -48 3 -47 3 0
-285z"/>
<path d="M1395 1829 c-81 -23 -155 -129 -155 -223 0 -120 73 -184 198 -173 75
7 91 18 84 53 -3 19 -9 23 -21 18 -9 -4 -42 -10 -74 -12 -54 -4 -59 -2 -92 31
-30 30 -35 42 -35 82 0 123 114 213 216 170 38 -16 39 -15 58 7 l18 23 -38 17
c-42 19 -110 22 -159 7z"/>
<path d="M5211 1645 c-56 -107 -101 -197 -101 -200 0 -3 14 -5 30 -5 27 0 33
6 57 55 l27 55 77 0 78 0 6 -55 c7 -52 9 -55 36 -55 16 0 29 4 29 10 0 11 -69
346 -76 373 -4 11 -15 17 -34 17 -27 0 -34 -11 -129 -195z m144 6 l7 -51 -51
0 c-28 0 -51 5 -51 10 0 13 48 109 63 129 13 15 20 -5 32 -88z"/>
<path d="M6102 1728 c-71 -134 -142 -275 -142 -283 0 -3 13 -5 28 -5 24 0 32
8 55 55 l27 56 78 -3 77 -3 8 -52 c8 -50 10 -53 38 -53 16 0 29 3 29 6 0 7
-68 338 -76 370 -5 18 -13 24 -34 24 -26 0 -34 -10 -88 -112z m92 -20 c4 -24
9 -58 12 -75 l6 -33 -57 0 c-31 0 -55 3 -53 8 29 61 74 142 79 142 3 0 9 -19
13 -42z"/>
<path d="M6555 1829 c-62 -15 -116 -58 -148 -119 -25 -47 -28 -64 -25 -117 5
-73 24 -106 84 -141 34 -20 49 -22 122 -19 45 2 87 8 92 13 12 12 40 161 32
169 -3 3 -15 5 -28 5 -19 0 -23 -8 -33 -62 -6 -34 -16 -65 -23 -70 -21 -13
-88 -9 -122 7 -87 41 -87 186 0 254 51 40 140 49 196 20 13 -7 20 -4 28 11 14
27 7 37 -38 50 -43 12 -82 11 -137 -1z"/>
<path d="M246 1803 c-8 -39 -56 -342 -56 -353 0 -6 49 -10 115 -10 l115 0 0
25 c0 25 -1 25 -83 25 l-84 0 8 48 c4 26 8 53 8 60 1 8 22 12 70 12 54 0 70 4
75 16 12 31 5 34 -65 34 l-71 0 7 43 c13 81 7 77 101 77 83 0 84 0 84 25 l0
25 -109 0 -109 0 -6 -27z"/>
<path d="M605 1740 c25 -49 45 -94 45 -98 0 -7 -51 -71 -148 -184 -14 -17 -12
-18 20 -18 32 0 42 8 99 76 l63 75 38 -75 c35 -69 41 -76 68 -76 17 0 30 3 30
6 0 4 -22 48 -50 99 l-50 92 80 94 79 94 -32 3 c-26 3 -36 -2 -62 -35 -16 -21
-44 -53 -60 -71 l-30 -33 -38 70 c-34 63 -42 71 -68 71 l-29 0 45 -90z"/>
<path d="M944 1635 l-30 -195 112 0 c93 0 113 3 118 16 12 31 5 34 -80 34
l-86 0 7 53 c4 28 9 55 12 60 2 4 35 7 74 7 67 0 69 1 69 25 0 24 -2 25 -65
25 -72 0 -72 0 -59 83 l7 37 82 0 c83 0 95 5 95 41 0 5 -51 9 -113 9 l-113 0
-30 -195z"/>
<path d="M1680 1823 c0 -5 -9 -62 -20 -128 -27 -165 -26 -188 8 -226 59 -66
202 -45 256 38 18 28 30 70 45 169 26 161 26 154 -4 154 -28 0 -26 6 -54 -162
-21 -123 -36 -158 -77 -176 -69 -32 -138 -1 -136 61 1 33 23 173 38 250 5 25
3 27 -25 27 -17 0 -31 -3 -31 -7z"/>
<path d="M2077 1823 c-4 -3 -7 -14 -7 -24 0 -15 10 -19 63 -21 l63 -3 -26
-167 -26 -168 27 0 c32 0 28 -12 60 198 l22 142 62 0 c62 0 75 7 75 41 0 10
-303 13 -313 2z"/>
<path d="M2476 1803 c-9 -44 -56 -343 -56 -354 0 -6 12 -9 27 -7 l28 3 30 193
31 192 -27 0 c-22 0 -29 -6 -33 -27z"/>
<path d="M2623 1818 c2 -7 24 -97 47 -200 59 -254 48 -256 204 45 l87 167 -28
0 c-26 0 -33 -10 -103 -145 -41 -80 -77 -145 -80 -145 -3 0 -16 48 -28 108
-40 186 -39 182 -73 182 -21 0 -30 -4 -26 -12z"/>
<path d="M3026 1658 c-15 -95 -29 -183 -31 -195 -5 -23 -4 -23 109 -23 104 0
114 2 119 19 3 11 2 22 -1 25 -3 3 -41 6 -85 6 l-80 0 7 46 c3 26 6 53 6 60 0
9 21 14 73 16 66 3 72 5 75 26 3 21 0 22 -62 22 -36 0 -67 3 -69 8 -2 4 1 31
6 60 l9 52 84 0 c46 0 84 4 84 9 0 5 3 16 6 25 5 14 -8 16 -109 16 l-114 0
-27 -172z"/>
<path d="M3630 1823 c0 -3 -16 -97 -36 -207 -38 -209 -55 -261 -101 -294 -23
-17 -25 -22 -14 -36 7 -9 17 -16 21 -16 11 0 81 73 95 101 12 23 85 402 85
442 0 11 -8 17 -25 17 -14 0 -25 -3 -25 -7z"/>
<path d="M3835 1818 c-6 -20 -55 -337 -55 -359 0 -19 6 -19 113 -17 108 3 112
4 115 26 3 21 1 22 -83 22 l-86 0 6 48 c10 74 8 72 84 72 65 0 69 1 73 25 5
25 4 25 -65 25 l-70 0 7 46 c3 26 6 53 6 60 0 10 23 14 88 16 82 3 87 4 90 26
3 22 2 22 -108 22 -80 0 -112 -3 -115 -12z"/>
<path d="M4130 1805 c0 -24 2 -25 63 -25 l63 0 -26 -167 -26 -168 24 -3 c13
-2 26 -2 28 0 3 4 54 311 54 331 0 4 29 7 64 7 63 0 76 7 76 41 0 5 -70 9
-160 9 l-160 0 0 -25z"/>
<path d="M4680 1823 c0 -5 -14 -91 -30 -193 -16 -102 -30 -188 -30 -192 0 -5
11 -8 24 -8 28 0 28 0 52 163 10 64 20 117 24 117 4 0 20 -62 36 -137 27 -131
30 -138 54 -141 23 -2 32 11 104 143 44 80 81 144 82 142 2 -1 -6 -57 -16
-122 -26 -158 -26 -155 8 -155 l28 0 28 178 c15 97 30 185 33 195 4 16 -1 18
-37 15 l-42 -3 -87 -157 -86 -158 -28 123 c-51 215 -43 197 -82 197 -19 0 -35
-3 -35 -7z"/>
<path d="M5600 1824 c0 -5 -45 -294 -55 -352 -6 -32 -5 -33 22 -30 27 3 28 4
49 139 12 76 24 143 26 150 2 7 39 -57 81 -144 73 -151 77 -157 106 -157 24 0
30 5 35 28 9 41 56 348 56 361 0 7 -11 11 -27 9 -27 -3 -27 -4 -50 -147 -12
-79 -24 -145 -26 -147 -2 -2 -35 64 -74 146 l-72 150 -35 0 c-20 0 -36 -2 -36
-6z"/>
<path d="M6876 1808 c-7 -32 -56 -345 -56 -358 0 -6 43 -10 115 -10 l115 0 0
25 c0 25 -1 25 -85 25 -83 0 -85 1 -81 23 3 12 8 39 11 60 l6 37 68 0 c54 0
70 4 75 16 12 31 5 34 -65 34 l-71 0 7 43 c13 81 7 77 101 77 83 0 84 0 84 25
l0 25 -110 0 c-106 0 -110 -1 -114 -22z"/>
<path d="M7210 1825 c0 -2 -13 -88 -30 -190 -16 -102 -30 -190 -30 -195 0 -12
50 -14 51 -2 4 56 48 283 52 272 4 -8 19 -73 34 -145 27 -124 29 -130 53 -130
22 0 35 18 104 143 43 78 80 141 82 139 2 -2 -5 -55 -16 -118 -27 -154 -26
-159 8 -159 l27 0 29 183 c16 100 31 188 34 195 3 10 -6 12 -38 10 l-42 -3
-85 -153 c-47 -84 -87 -151 -90 -149 -2 3 -17 63 -33 133 -17 71 -32 139 -35
152 -4 18 -12 22 -40 22 -19 0 -35 -2 -35 -5z"/>
<path d="M7746 1803 c-8 -39 -56 -342 -56 -353 0 -6 49 -10 115 -10 l115 0 0
25 c0 25 -1 25 -85 25 -83 0 -85 1 -81 23 3 12 8 39 11 60 l6 37 68 0 c54 0
70 4 75 16 12 31 5 34 -65 34 l-71 0 7 43 c13 81 7 77 101 77 83 0 84 0 84 25
l0 25 -109 0 -109 0 -6 -27z"/>
<path d="M8075 1798 c-10 -59 -55 -347 -55 -352 0 -4 11 -6 25 -6 28 0 27 -4
50 150 26 174 17 174 106 -2 76 -151 80 -158 109 -158 17 0 30 2 30 5 0 2 14
88 30 190 17 102 30 190 30 196 0 6 -12 9 -27 7 -28 -3 -28 -4 -50 -140 -11
-76 -23 -142 -25 -148 -2 -6 -37 57 -78 140 -73 147 -75 150 -107 150 -28 0
-33 -4 -38 -32z"/>
<path d="M8490 1805 c0 -24 3 -25 60 -25 46 0 60 -3 60 -15 0 -15 -36 -247
-46 -297 -5 -26 -3 -28 25 -28 17 0 31 5 31 11 0 13 38 264 46 302 5 26 8 27
69 27 59 0 63 1 67 25 l5 25 -158 0 -159 0 0 -25z"/>
</g>
</svg>
