<?xml version="1.0" standalone="no"?>
<!DOCTYPE svg PUBLIC "-//W3C//DTD SVG 20010904//EN"
 "http://www.w3.org/TR/2001/REC-SVG-20010904/DTD/svg10.dtd">
<svg version="1.0" xmlns="http://www.w3.org/2000/svg"
 width="300.000000pt" height="131.000000pt" viewBox="0 0 300.000000 131.000000"
 preserveAspectRatio="xMidYMid meet">

<g transform="translate(0.000000,131.000000) scale(0.100000,-0.100000)"
fill="#000000" stroke="none">
<path d="M1121 1240 c-96 -256 -280 -642 -369 -776 -79 -117 -208 -241 -299
-286 -58 -28 -80 -33 -153 -36 -96 -3 -144 13 -169 59 -27 49 -9 90 64 143 36
26 65 51 65 55 0 25 -93 81 -134 81 -44 0 -109 -110 -122 -204 -13 -90 44
-174 153 -229 140 -71 286 -57 432 39 129 85 275 268 367 462 96 199 199 574
192 701 l-3 56 -24 -65z"/>
<path d="M2645 798 c-6 -19 -105 -433 -105 -441 0 -4 16 -7 35 -7 32 0 35 3
45 40 5 22 15 58 21 81 l10 41 84 -4 c105 -4 125 -18 125 -90 l0 -48 40 0 40
0 0 50 c0 43 -4 54 -34 81 l-33 32 41 21 c29 15 48 34 64 66 32 64 30 80 -13
80 -30 0 -36 -4 -41 -27 -22 -90 -58 -113 -177 -113 l-85 0 24 99 c13 54 26
110 30 125 6 24 4 26 -30 26 -20 0 -39 -6 -41 -12z"/>
<path d="M1566 748 c-53 -186 -66 -252 -56 -288 13 -48 59 -91 99 -92 35 -1
66 21 42 29 -7 3 -27 17 -43 32 -36 32 -39 68 -13 164 l18 67 38 0 c27 0 41 5
48 19 13 24 5 31 -36 31 -28 0 -33 3 -29 18 21 70 21 72 -17 72 -34 0 -36 -2
-51 -52z"/>
<path d="M1806 748 c-53 -186 -66 -252 -56 -288 19 -69 95 -117 135 -85 15 12
16 18 7 22 -30 12 -71 56 -76 81 -4 17 9 79 34 167 22 77 40 143 40 147 0 5
-15 8 -34 8 -33 0 -35 -2 -50 -52z"/>
<path d="M1181 703 c-95 -34 -171 -145 -158 -229 21 -130 195 -166 324 -68 18
14 33 29 33 34 0 4 -17 11 -39 15 -31 5 -45 2 -77 -20 -31 -22 -47 -26 -79
-22 -45 6 -75 36 -75 73 l0 24 163 2 162 3 3 39 c10 123 -119 198 -257 149z
m143 -84 c14 -11 26 -29 26 -40 0 -18 -8 -19 -110 -19 -109 0 -111 0 -100 21
14 26 84 58 126 59 17 0 43 -9 58 -21z"/>
<path d="M2005 558 c-20 -84 -39 -163 -42 -176 -5 -22 -3 -23 33 -20 l39 3 36
155 c47 197 47 190 5 190 l-34 0 -37 -152z"/>
<path d="M2264 686 c-73 -34 -99 -73 -129 -197 -14 -57 -25 -110 -25 -116 0
-8 13 -13 34 -13 l34 0 28 113 c22 91 33 117 57 139 41 39 100 53 146 36 59
-22 64 -46 35 -166 -31 -132 -31 -132 6 -132 36 0 41 9 70 127 27 108 26 135
-7 174 -54 64 -156 78 -249 35z"/>
<path d="M418 663 c-24 -28 -30 -60 -18 -98 13 -40 45 -55 69 -31 24 25 22
113 -3 132 -25 18 -30 18 -48 -3z"/>
<path d="M554 635 c-32 -77 27 -155 70 -93 32 45 9 128 -35 128 -13 0 -25 -12
-35 -35z"/>
</g>
</svg>
