<?xml version="1.0" standalone="no"?>
<!DOCTYPE svg PUBLIC "-//W3C//DTD SVG 20010904//EN"
 "http://www.w3.org/TR/2001/REC-SVG-20010904/DTD/svg10.dtd">
<svg version="1.0" xmlns="http://www.w3.org/2000/svg"
 width="238.000000pt" height="212.000000pt" viewBox="0 0 238.000000 212.000000"
 preserveAspectRatio="xMidYMid meet">
<metadata>
Created by potrace 1.16, written by Peter Selinger 2001-2019
</metadata>
<g transform="translate(0.000000,212.000000) scale(0.100000,-0.100000)"
fill="#000000" stroke="none">
<path d="M978 2106 c-92 -25 -155 -83 -200 -182 -18 -40 -23 -72 -26 -176 l-4
-127 -257 -3 -256 -3 -57 -28 c-70 -34 -131 -101 -155 -170 -17 -48 -18 -98
-18 -612 l0 -560 33 -67 c35 -72 77 -113 152 -150 l45 -23 955 0 955 0 45 23
c75 37 117 78 152 150 l33 67 0 560 c0 648 2 629 -89 721 -87 86 -120 94 -410
94 l-244 0 -4 128 c-3 121 -6 133 -36 195 -35 71 -78 113 -152 150 -41 20 -62
22 -230 24 -128 2 -199 -1 -232 -11z m385 -117 c43 -12 101 -59 123 -100 10
-20 14 -63 14 -149 l0 -120 -310 0 -310 0 0 120 c0 132 6 154 58 203 48 46 92
56 247 57 77 0 157 -5 178 -11z m758 -501 c46 -15 80 -43 106 -86 l23 -37 0
-553 c0 -463 -2 -558 -14 -581 -20 -37 -79 -89 -114 -98 -35 -10 -1829 -10
-1864 0 -35 9 -94 61 -114 98 -12 23 -14 118 -14 581 l0 553 23 37 c25 42 59
70 102 86 44 15 1820 16 1866 0z"/>
</g>
</svg>
